<svg id="Camada_1" data-name="Camada 1" xmlns="http://www.w3.org/2000/svg" viewBox="0 0 386.79 399.56"><defs><style>.cls-1,.cls-3{fill:#f7ec63;stroke:#020202;}.cls-1,.cls-143,.cls-3{stroke-miterlimit:10;}.cls-2{fill:#1d1d1b;}.cls-3{stroke-width:2px;}.cls-4{fill:#ffd703;}.cls-5{fill:#068e3a;}.cls-6{fill:#f6f3ee;}.cls-7{fill:#fffbf7;}.cls-8{fill:#ffd603;}.cls-9{fill:#020202;}.cls-10{fill:#22130c;}.cls-11{fill:#371a0c;}.cls-12{fill:#34190d;}.cls-13{fill:#442110;}.cls-14{fill:#31170a;}.cls-15{fill:#46200d;}.cls-16{fill:#068939;}.cls-17{fill:#371b0d;}.cls-18{fill:#401c0b;}.cls-19{fill:#361a0c;}.cls-20{fill:#1e120d;}.cls-21{fill:#492410;}.cls-22{fill:#c25221;}.cls-23{fill:#a05119;}.cls-24{fill:#c35221;}.cls-25{fill:#068839;}.cls-26{fill:#c05120;}.cls-27{fill:#c15221;}.cls-28{fill:#2d180d;}.cls-29{fill:#41332b;}.cls-30{fill:#b94e20;}.cls-31{fill:#b84e1f;}.cls-32{fill:#068638;}.cls-33{fill:#42342c;}.cls-34{fill:#a7541a;}.cls-35{fill:#884728;}.cls-36{fill:#894828;}.cls-37{fill:#a65419;}.cls-38{fill:#c05121;}.cls-39{fill:#874628;}.cls-40{fill:#068b3a;}.cls-41{fill:#401d0c;}.cls-42{fill:#ab561a;}.cls-43{fill:#421e0e;}.cls-44{fill:#42322a;}.cls-45{fill:#be5020;}.cls-46{fill:#b34c1f;}.cls-47{fill:#834527;}.cls-48{fill:#50250f;}.cls-49{fill:#37190a;}.cls-50{fill:#864627;}.cls-51{fill:#874728;}.cls-52{fill:#331a0c;}.cls-53{fill:#bf5120;}.cls-54{fill:#9d4f19;}.cls-55{fill:#682e15;}.cls-56{fill:#088036;}.cls-57{fill:#b94e1f;}.cls-58{fill:#381e0f;}.cls-59{fill:#2a140b;}.cls-60{fill:#b64d1f;}.cls-61{fill:#a3451c;}.cls-62{fill:#2d150a;}.cls-63{fill:#844527;}.cls-64{fill:#c55321;}.cls-65{fill:#a8471d;}.cls-66{fill:#84711a;}.cls-67{fill:#bb4f20;}.cls-68{fill:#dcb906;}.cls-69{fill:#e0bc04;}.cls-70{fill:#464545;}.cls-71{fill:#055026;}.cls-72{fill:#803617;}.cls-73{fill:#3773a2;}.cls-74{fill:#086e31;}.cls-75{fill:#2c5c80;}.cls-76{fill:#b24b1e;}.cls-77{fill:#927b16;}.cls-78{fill:#085429;}.cls-79{fill:#111212;}.cls-80{fill:#161716;}.cls-81{fill:#2c2d2c;}.cls-82{fill:#141414;}.cls-83{fill:#191918;}.cls-84{fill:#151515;}.cls-85{fill:#0d0e0e;}.cls-86{fill:#2a2a29;}.cls-87{fill:#3a1b0c;}.cls-88{fill:#3b1b0b;}.cls-89{fill:#934a18;}.cls-90{fill:#c45321;}.cls-91{fill:#42332b;}.cls-92{fill:#bc4f20;}.cls-93{fill:#5c2812;}.cls-94{fill:#3a1a09;}.cls-95{fill:#9d441c;}.cls-96{fill:#34180c;}.cls-97{fill:#552510;}.cls-98{fill:#b14b1e;}.cls-99{fill:#ba4e20;}.cls-100{fill:#5e2911;}.cls-101{fill:#1f100a;}.cls-102{fill:#9e431b;}.cls-103{fill:#953e19;}.cls-104{fill:#41322a;}.cls-105{fill:#a8541a;}.cls-106{fill:#ac571a;}.cls-107{fill:#974c18;}.cls-108{fill:#c15121;}.cls-109{fill:#3c1f0c;}.cls-110{fill:#b74e1f;}.cls-111{fill:#411e0c;}.cls-112{fill:#391c0c;}.cls-113{fill:#b54c1f;}.cls-114{fill:#b04b1e;}.cls-115{fill:#1a0c07;}.cls-116{fill:#ac491e;}.cls-117{fill:#582710;}.cls-118{fill:#43200e;}.cls-119{fill:#b74d1f;}.cls-120{fill:#b34b1f;}.cls-121{fill:#a15119;}.cls-122{fill:#8a4828;}.cls-123{fill:#ba4f20;}.cls-124{fill:#1f120b;}.cls-125{fill:#ae581a;}.cls-126{fill:#ad491e;}.cls-127{fill:#ad571a;}.cls-128{fill:#b44c1f;}.cls-129{fill:#773316;}.cls-130{fill:#602c13;}.cls-131{fill:#572813;}.cls-132{fill:#b04a1e;}.cls-133{fill:#351b0d;}.cls-134{fill:#2e170c;}.cls-135{fill:#a9551a;}.cls-136{fill:#a5451c;}.cls-137{fill:#bd5020;}.cls-138{fill:#421e0b;}.cls-139{fill:#ac491d;}.cls-140{fill:#37190e;}.cls-141{fill:#2c160d;}.cls-142{fill:#3d1c0f;}.cls-143{stroke:#bfbfbf;}</style></defs><path class="cls-1" d="M226.08,96l-5.74,4.13c-3,2.16-6,4.35-9.05,6.48a1,1,0,0,0-.46,1.34c1.81,5.6,3.58,11.21,5.35,16.83.09.29.3.58.15,1-.39.07-.6-.27-.85-.45q-6.93-5.07-13.85-10.19a.88.88,0,0,0-1.26,0q-7.29,5.27-14.61,10.47l-.76.53c-.14-.41.09-.71.19-1q2.72-8.26,5.47-16.51a.83.83,0,0,0-.35-1.14c-4.86-3.55-9.7-7.14-14.54-10.72-.23-.16-.44-.34-.82-.65h1.49c5.65,0,11.3,0,16.95.06a.94.94,0,0,0,1.08-.79c2-6,4-11.95,6-18.09l2.18,6.83c1.16,3.61,2.33,7.21,3.45,10.83a.93.93,0,0,0,1.08.8c6.26,0,12.52,0,18.78,0Z" transform="translate(-14.55 -23.11)"/><path class="cls-2" d="M207.78,316.31" transform="translate(-14.55 -23.11)"/><path class="cls-3" d="M223,67.37a61.36,61.36,0,0,1,7.2-.41,49.5,49.5,0,0,0-4-6.41,58.74,58.74,0,0,0-9.43-11.43c-4.2-3.81-8.94-6.53-14.72-7.07a15.68,15.68,0,0,1-1.93-.42,38.22,38.22,0,0,0,5.54-6.33A32.75,32.75,0,0,0,209,27.86c.27-.86.12-1.15-.82-1.15a54,54,0,0,0-7,.56c-.61.08-1.47.55-1.68-.61s.42-1.46,1.26-1.49c3.9-.15,7.83-.48,11.71.09,3.69.54,3.71.69,3.66,4.54-.06,3.6.21,7.19-.19,10.78-.12,1.1.67,1.1,1.36,1.16a215,215,0,0,1,21.74,3c1.12.2,2.25.38,3.35.67s1.52-.12,1.79-1.15c1.12-4.14,2.34-8.25,3.44-12.4.36-1.38.81-1.93,2.43-1.55a203.88,203.88,0,0,1,25.29,7.5c1,.36,1,.74.61,1.55-1.88,4.11-3.65,8.27-5.59,12.35-.53,1.12-.21,1.48.76,1.9,5.93,2.6,11.79,5.36,17.51,8.42,2.2,1.18,4.41,2.36,6.56,3.65.86.52,1.22.42,1.73-.43,2.23-3.74,4.54-7.43,6.79-11.15,1.19-2,1.17-2,3.09-.84a192.78,192.78,0,0,1,22,15.71c.86.7.77,1.18,0,1.93-3,3.06-5.94,6.23-9,9.25-1.14,1.13-1.43,1.66.05,2.9a179.5,179.5,0,0,1,18.55,18.14c.9,1,1.49,1.2,2.59.22,3.05-2.7,6.24-5.24,9.33-7.9,1.56-1.35,1.48-1.37,2.91.2a155,155,0,0,1,13.84,18.13c.64,1,1.2,2,1.88,2.87s.46,1.47-.5,2.06c-3.55,2.22-7.05,4.53-10.6,6.75-1.05.65-1.53,1-.69,2.43a180.4,180.4,0,0,1,11.87,22.89c.52,1.22,1,1.82,2.5,1.13,3.82-1.72,7.76-3.15,11.62-4.78,1.08-.45,1.66-.38,2.11.79a230.69,230.69,0,0,1,8.22,25.1c.31,1.18-.26,1.31-1,1.51-4.14,1.12-8.28,2.26-12.43,3.31-1.08.27-1.37.63-1.08,1.76a192.69,192.69,0,0,1,3.87,19.62c.33,2.31.56,4.63.71,7,.07,1.14.49,1.5,1.59,1.48,4.36,0,8.72,0,13.08,0,.94,0,1.34.22,1.39,1.26.3,6.63.79,13.25.61,19.9,0,1.57-.23,3.14-.27,4.71,0,1.15-.82,1-1.5.94-4-.08-8-.38-12.07-.28-2.13.06-2.06,0-2.17,2.19a158.67,158.67,0,0,1-2.74,21.94c-.19,1-.36,2-.54,3-.41,2.21-.4,2.19,1.87,2.6,4.05.73,8.09,1.54,12.15,2.23,1,.17,1.09.51.89,1.4a257.61,257.61,0,0,1-7.08,25.58c-.34,1-.77,1.16-1.73.83-4.16-1.44-8.36-2.77-12.52-4.24-1.19-.42-1.77-.21-2.21,1a177.63,177.63,0,0,1-10.76,23.06c-.4.73-.26,1,.35,1.38,3.93,2.65,7.8,5.37,11.73,8,.89.59,1.08,1,.5,2-4.4,7.73-9.36,15.07-14.48,22.31-.63.89-1.18,1-2,.29-3.28-2.85-6.61-5.66-9.87-8.54-2-1.74-1.94-1.81-3.58.22a190.94,190.94,0,0,1-17.12,18.4c-1,.92-1.23,1.45-.13,2.56,3.26,3.28,6.34,6.74,9.55,10.06.82.86.89,1.2-.09,2.1-4.73,4.34-9.67,8.43-14.7,12.41-1.63,1.28-1.54,1.38-2.87-.57q-6.79-10-13.47-20.06c-2.77-4.17-5.44-8.4-8.21-12.58-.59-.89-.6-1.38.32-2.12A152.1,152.1,0,0,0,317.84,328a157.7,157.7,0,0,0,32.48-59.93,164.56,164.56,0,0,0,4.79-22.92c.56-4.13.9-8.3,1.12-12.48.19-3.59.33-7.18.25-10.77a164,164,0,0,0-4.65-35.76,157,157,0,0,0-33.45-65,158.45,158.45,0,0,0-85.44-51.84C229.78,68.61,226.58,68.07,223,67.37Z" transform="translate(-14.55 -23.11)"/><path class="cls-4" d="M86.21,327a22.21,22.21,0,0,1-9-8.94q-2.15-3.66-4.32-7.3c-.26-.44-.41-1.07-1.19-.61s-.44.85-.12,1.33c.12.18.2.38.32.56,4.38,6,6.46,12.83,7.87,20,.51,2.61,1.14,5.2,1.69,7.8a6.37,6.37,0,0,0,1.33,2.74c4,4.92,7.87,9.89,11.82,14.82a21.53,21.53,0,0,1,2.72,5.29c-2.84-1.82-5.73-3.5-8.11-5.93-4.65-4.76-9-9.81-14-14.22a56,56,0,0,0-12.64-8.61,6.09,6.09,0,0,1-2.23-1.83c-3.18-4.15-6.4-8.27-9.62-12.39-.36-.46-.61-1.28-1.48-.53s0,1.05.32,1.43c2.84,3.72,5.62,7.49,8.61,11.09,3.27,4,5.21,8.63,8,13.27-1.93-.58-3.57-1-5.1-1.58s-2.46-.4-3.2,1a5,5,0,0,1-.8.92l-15-17.07a26.58,26.58,0,0,0-2.18-2.43c-1.31-1.15-1.18-2.32-.28-3.59.55-.79,1.12-1.57,1.76-2.46,2.84,3.7,5.57,7.29,8.35,10.86.32.41.48,1.38,1.43.66s.06-1.14-.25-1.55c-2.52-3.35-5-6.7-7.67-10-.73-.91-.58-1.35.23-2.06,3.2-2.83,3.37-2.85,6.66-.18Q63,328,75.88,338.46c.49.39.89,1.19,1.77.42s.11-1.18-.12-1.68c-3.28-7.12-6.26-14.33-7.69-22.09a51.77,51.77,0,0,1-.93-7.12A2.44,2.44,0,0,1,71,305.16a1.52,1.52,0,0,1,1.85.86c1.57,3,3.22,5.92,4.84,8.87.29.53.47,1.11,1.3.61s.25-.93,0-1.34c-1.48-2.72-3-5.43-4.47-8.14-.5-.9-1.45-1.79.27-2.49,1.53-.63,2.64-.23,3.19,1.32,1.37,3.89,2.71,7.79,4.12,11.67a92.18,92.18,0,0,0,3.8,9C86.14,326,86.61,326.42,86.21,327Z" transform="translate(-14.55 -23.11)"/><path class="cls-5" d="M32.75,192.15c-.79-3.17-1.43-5.92-2.17-8.64-.19-.74.24-1.13.55-1.6q3.42-5.08,6.86-10.15c.21-.32.42-.64.64-.95s.38-.54,0-.84-.67,0-.89.28c-1.32,1.94-2.64,3.87-3.95,5.81l-3.61,5.35a45.25,45.25,0,0,1-1.45-6.94,2.45,2.45,0,0,1,.52-1.52c1.09-1.94,2.23-3.86,3.26-5.84.29-.57,1.4-1.35.44-1.86s-1,.87-1.36,1.45a44.51,44.51,0,0,1-3.37,5.16c-.26-2.51-.63-5-.75-7.54-.14-3.1-.54-6.2-.12-9.3.05-.4.18-1-.48-1s-.66.56-.68,1A93.84,93.84,0,0,0,27,170a5.27,5.27,0,0,1-.09,2.25l-3.06-4.69c-.83-1.27-1.65-2.56-2.5-3.82-.23-.35-.47-.87-1-.5s-.06.78.14,1.1c2.13,3.29,4.21,6.62,6.44,9.83,1.58,2.28,1.33,5,2.32,7.79-2.33-1.77-4.29-3.31-6.31-4.78-.41-.3-.91-1.19-1.43-.54s.45,1.06.87,1.39c2,1.6,4.06,3.12,6.11,4.66a3.27,3.27,0,0,1,1.36,2.11c.46,2.2,1.09,4.37,1.64,6.56l-.37.24c-1.27-1.33-2.53-2.66-3.83-4-.3-.3-.61-1-1.15-.33s.18.76.44,1c1.4,1.45,2.76,2.95,4.28,4.26A7.51,7.51,0,0,1,33,196.7a1.25,1.25,0,0,1-.53,1.43c-.67.49-.85-.26-1.1-.56-5.95-7.46-10.61-15.57-12-25.19-1.19-8.54.75-16.53,4.8-24.06.67-1.25,1.42-2.45,2.12-3.68.4-.7.73-.75,1.31-.12,6.43,7,11.82,14.67,13.7,24.27,1.8,9.19-.46,17.57-5.07,25.48a1.85,1.85,0,0,1-.19.27c-.62.58-1.45,1.78-1.93,1.43a2.41,2.41,0,0,1-.54-2.95c.56-1.24,1.14-2.47,1.66-3.73.14-.34.59-.79,0-1.11s-.7.27-.88.63C33.84,189.79,33.39,190.77,32.75,192.15Z" transform="translate(-14.55 -23.11)"/><path class="cls-5" d="M80.43,133.88a62.62,62.62,0,0,1-3.14,12.31c-2.51,7.07-5.65,13.82-10.39,19.68-3.44,4.25-7.41,7.89-13.08,8.89a15.3,15.3,0,0,1-9.68-1.56c2-1.45,4-2.82,5.94-4.21a2.71,2.71,0,0,1,1.73-.31c3.32,0,6.65,0,10,0,.54,0,1.59.52,1.55-.49s-1.06-.43-1.62-.44c-3.14-.05-6.27,0-9.92,0l5.61-4.95c.46-.42,1-.26,1.56-.29l8-.33c.39,0,1,.17,1-.51s-.63-.46-1-.46H59.13c2.47-2.6,4.92-5.44,7.67-7.95,1.26-1.15,3.35-.66,5-1.16a4.28,4.28,0,0,1,.81-.08c.46,0,.7-.3.58-.77s-.46-.33-.79-.28c-1.33.22-2.67.43-4.25.67,1.87-2.17,3.62-4.18,5.35-6.22,1.54-1.83,3.06-3.69,4.58-5.54.23-.27.62-.56.21-1s-.75,0-1,.34c-2.9,3.4-5.78,6.82-8.67,10.22-.52.61-1.08,1.19-1.92,2.12,0-1.62,0-2.83,0-4.05,0-.33,0-.68-.48-.69s-.49.35-.49.68c0,1.31-.06,2.62,0,3.93a2.72,2.72,0,0,1-.94,2.3c-2.19,2-4.34,4.11-6.54,6.19.12-1.4.26-2.92.4-4.43,0-.44.44-1.08-.33-1.19s-.68.66-.74,1.15a9.22,9.22,0,0,0-.2,2.27c.5,4.16-2.52,6-5.33,8.27a35.35,35.35,0,0,1,.4-5.08c0-.49.13-1,.17-1.46s.1-.95-.53-1-.43.53-.48.85c-.3,2.31-.58,4.63-.86,7-.06.49,0,1-.52,1.31A57.52,57.52,0,0,1,44,171.87c-.51-2.33-1-4.57-1.46-6.82a4,4,0,0,1,.54-2.35c2.26-5.57,6.21-9.81,10.76-13.54,7.86-6.44,16.81-11,26-15.15A3.93,3.93,0,0,1,80.43,133.88Z" transform="translate(-14.55 -23.11)"/><path class="cls-4" d="M32.25,265.69c3.54,5.93,7.19,11.53,9.58,17.8A19.1,19.1,0,0,0,50.54,294a8.44,8.44,0,0,1,4.67,8.39,12.12,12.12,0,0,0,2.68,8.86c2.54,3.39,4.37,7.26,6.47,10.94.26.45.2,1.36,1.3,1s.59-.92.47-1.53Q63.49,308.31,60.87,295c-.18-1-.46-1.91.39-2.75,1.22-1.21,2.49-1.12,3.42.31l1.14,1.79c.35.55.69.27,1.08,0s.43-.55.15-.92a3.22,3.22,0,0,1-.62-1c-.2-.66-1.35-1.11-.68-1.89a2.86,2.86,0,0,1,2.74-1.13,2.11,2.11,0,0,1,1.78,1.7c.7,3.74,1.34,7.49,2.07,11.22.18.91-.16,1-.92,1.27a2.82,2.82,0,0,1-3.52-1.27,62.88,62.88,0,0,0-4.1-4.87c-.29-.32-.48-1.09-1.24-.51s-.35,1,.07,1.46c1.63,1.9,3.26,3.8,4.87,5.72.29.35.85.67.5,1.25-1.4,2.31-.41,4.7-.11,7a79,79,0,0,0,6.41,21.3c.1.24.35.45,0,.95-3.58-3.26-8.16-5.19-10.64-9.79A109.41,109.41,0,0,0,53,309.3a8.12,8.12,0,0,0-2.31-2c-6.15-3.61-11.22-8.24-13.84-15.09a16.55,16.55,0,0,1-1.22-5.71,76.73,76.73,0,0,0-3.41-19.55A1.48,1.48,0,0,1,32.25,265.69Z" transform="translate(-14.55 -23.11)"/><path class="cls-5" d="M56.92,113.23c.95-3.62,1.82-7,2.7-10.31.16-.6.68-.81,1.17-1q1.62-.8,3.21-1.62c.32-.16.53-.4.34-.78s-.52-.28-.82-.13L60.11,101c.37-2,.73-3.72,1-5.48.07-.45.42-1.25-.43-1.31s-.48.72-.56,1.14c-.39,1.84-.73,3.69-1.18,6C58.14,100,57.6,99,57,98c-.18-.31-.3-.8-.81-.55s-.28.71-.07,1.09a2.93,2.93,0,0,0,.23.43c2.32,2.72,2.18,5.65.92,8.78a50.58,50.58,0,0,0-1.43,4.92c-.78-1.47-1.35-2.59-2-3.69-.18-.32-.22-1-.87-.68s-.34.77-.07,1.08c3.86,4.47,1.12,8.72-.44,13.27-.64-1.24-1.17-2.29-1.71-3.33-.19-.37-.32-.9-.93-.56s-.21.65-.06,1a3.23,3.23,0,0,0,.46.86c2.57,3.15,1.11,6.15-.36,9.42l-1.87-6.81c-1,.13-1.27,1.06-2.17,1.23-.86-3.1-.28-6.14.4-9.13,1.38-6.15,4.14-11.78,7.06-17.32C56,93,58.93,88.06,62,83a43.75,43.75,0,0,1,2.47,6.58,53.11,53.11,0,0,1,2.83,16.65c0,6.39-1.31,12.46-5.25,17.68a22.88,22.88,0,0,1-11.51,7.92c1-2.75,1.84-5.23,2.69-7.72.19-.56.7-.65,1.13-.84,1.24-.54,2.51-1,3.75-1.6.38-.16,1.14-.11.78-.89s-.87-.15-1.24,0c-1.17.43-2.31,1-3.64,1.33,1.4-3,.94-7,4.71-8.83a23.23,23.23,0,0,0,2.82-2c.34-.24.63-.46.25-.9s-.57-.13-.84,0Z" transform="translate(-14.55 -23.11)"/><path class="cls-4" d="M55.74,350.62l16.81,12.22c2.2,1.6,4.38,3.22,6.61,4.79.38.27.76,1.1,1.45.26s-.11-1.13-.57-1.46c-7.43-5.42-14.85-10.86-22.33-16.2-1.19-.85-1.25-1.43-.4-2.53,2.35-3.05,2.31-3.08,6-1.94A92,92,0,0,1,90.41,360c2.58,1.89,5.28,3.62,7.92,5.41-1.79,3-1.72,2.81-4.83,1.54a46.27,46.27,0,0,1-17.66-12.43c-1.29-1.47-2.81-2.74-4.19-4.13-.46-.46-.8-.62-1.33-.06s0,.86.31,1.15c3.37,3.33,6.77,6.64,10.15,10,4,3.9,7.17,8.48,10.8,12.67,1,1.1-.25,1.64-.6,2.38-.41.9-1,.3-1.44,0Q72.77,367.45,56,358.39a2.28,2.28,0,0,1-1.4-2.17A11.65,11.65,0,0,1,55.74,350.62Z" transform="translate(-14.55 -23.11)"/><path class="cls-5" d="M103,66.9c.36-2.2.72-4.17,1-6.15.06-.45.4-1.26-.43-1.33s-.48.72-.55,1.14c-.37,2-.69,3.94-1.07,6.17a9.59,9.59,0,0,1-1.84-2.39c-.26-.33-.43-.89-1-.49s-.13.83.14,1.1c2.54,2.5,2.12,5.27.86,8.18-.56,1.29-1,2.64-1.5,4.18-1-1.22-1.14-2.53-1.69-3.66-.18-.38-.2-1-.83-.72s-.23.72-.15,1.1a1.17,1.17,0,0,0,.2.44c2.28,3.61,1.43,7-.77,10.22-1.11-1.22-2.69-5.64-3.13-8.39C91.06,69.07,93.48,63,98.26,57.76a55.47,55.47,0,0,1,5.5-5.12c.95-.81,1.38-.6,1.88.43a19.47,19.47,0,0,1,1.83,6.57c.79,7.77.08,15.32-3.62,22.37a17.81,17.81,0,0,1-5.11,5.85c-2.34,1.82-3.75,4.5-5.69,6.71-.42.47-.76,1-1.36,1.82h10.8c.67,0,.89-.57,1.18-1,2.92-4.38,7.14-6.7,12.18-7.8-.92,3-5.64,7.56-8.71,8.07-1.67.28-1.3.87-.76,1.85a30.26,30.26,0,0,1,4,11.69,14.25,14.25,0,0,1-6.6-9.28c-.38-1.7-1-2.3-2.78-2.19-2.82.17-5.67.09-8.5,0a3.64,3.64,0,0,0-3,1.21c-2.12,2.26-4.38,4.4-6.56,6.62a4.1,4.1,0,0,1-3.13,1.29c2.2-2.57,4.25-5,6.32-7.4q4.83-5.65,9.68-11.29c.33-.4.83-.69.48-1.39s.34-.69.7-.88c1.06-.56,2.13-1.09,3.19-1.64.4-.21.83-.47.49-1s-.69-.07-1,.07c-.88.41-1.73.87-3,1.52A48.28,48.28,0,0,1,99,79.32c.72-1.24,2.41-1.37,3.55-2.18.6-.42,2.06-.47,1.61-1.37s-1.36.24-2.06.48a21.11,21.11,0,0,0-2.38,1.16c1-3.06,2-5.84,2.72-8.73.21-.88,1.26-.7,1.9-1.05.42-.23,1.31,0,1.1-.85s-.88-.22-1.35-.15C103.79,66.68,103.48,66.78,103,66.9Z" transform="translate(-14.55 -23.11)"/><path class="cls-5" d="M197.08,52.17c2.49,1.07,4.69,1.93,6.81,3,1.14.56.87,2,1.45,3,.39.63.08,2.1,1.1,1.79s0-1.36-.13-2.08a13.8,13.8,0,0,0-.6-1.93l11.71,5c.25.11.5.21.75.33.42.2.85.36,1.06-.24s-.37-.58-.66-.71q-4.32-1.89-8.68-3.74l-2.43-1.07c.41-.57,1.06-.51,1.54-.78.25-.14.69-.17.5-.66s-.43-.55-.77-.34c-3,1.84-5.5-.07-8.1-1.12-1.31-.53-2.59-1.12-4.1-1.77L199.74,49c.4-.23,1.06-.4.7-1s-.74,0-1.11.08a.41.41,0,0,0-.15.07c-3.53,3.11-6.74,1.26-10-.64,2.37-.89,4.61-2,6.86-3.07s4.82-.57,7.22-.17c5.24.89,9.47,3.69,13.19,7.34a71.55,71.55,0,0,1,10.19,13.36,90.92,90.92,0,0,1-16.51.73,24.69,24.69,0,0,1-10.59-2.94,3,3,0,0,1-1.65-2.05,25.39,25.39,0,0,0-2.18-5.26c-.22-.44-.68-.88.11-1.34s1,.22,1.31.66c.5.62.54,2.22,1.37,1.8,1.14-.58-.33-1.47-.49-2.27A11.3,11.3,0,0,0,197.08,52.17Z" transform="translate(-14.55 -23.11)"/><path class="cls-5" d="M54.33,205.39c1.31-.87,2.65-1.71,3.92-2.64.4-.29,1.4-.37.94-1.17s-1,0-1.42.27c-1.89,1.17-3.71,2.43-5.77,3.79,0-.92,0-1.6,0-2.28,0-.28,0-.55-.4-.59s-.64.24-.56.58c.72,3.11-1.59,4.29-3.55,5.73-.92.67-1.79,1.4-2.66,2.09-.14-.09-.25-.12-.29-.2-.26-.48.32-1.46-.54-1.47s-.49.93-.49,1.42a2.71,2.71,0,0,1-1.07,2.25c-1.22,1-2.38,2.05-3.8,3.29,0-1,0-1.7,0-2.43,0-.3-.15-.52-.48-.53a.48.48,0,0,0-.51.51,2.93,2.93,0,0,0,0,.66c.67,3-1.68,4.24-3.51,6a31,31,0,0,1-.17-9.92c.9-5.41,4.05-8.87,9.14-10.69A40,40,0,0,1,54,198.21c3.19-.22,6.38-.41,9.61-.74C60,211.13,51.09,221.73,34.72,221.81c1.53-1.75,2.86-3.48,5.53-3a19.51,19.51,0,0,0,3.42,0c.4,0,1,.16,1-.49s-.58-.51-1-.52h-5c2-1.67,3.48-3.13,5.19-4.33.88-.62,2.12-.15,3.2-.21.82,0,1.63,0,2.45,0,.36,0,.84.06.86-.49s-.46-.52-.83-.52a34.55,34.55,0,0,1-3.91-.16c2.72-2.17,5-5.07,8.89-5.13a1.22,1.22,0,0,0,.63-.14c.42-.26,1.36.12,1.28-.66s-1-.31-1.49-.45C54.63,205.85,54.31,206,54.33,205.39Z" transform="translate(-14.55 -23.11)"/><path class="cls-5" d="M168.88,37.24c-.17-1-.33-2-.52-3-.07-.41-.28-.72-.78-.6s-.4.48-.27.77c1.72,3.78-.39,6.33-2.76,8.83-.78.82-1.45,1.75-2.26,2.75-.53-1.05-.27-2-.4-3-.06-.42.24-1.16-.54-1.1s-.42.75-.43,1.19a9.94,9.94,0,0,0,.05,2.44c.42,1.89-.68,3.13-1.79,4.3s-2.39.18-3.56.07c-1-.09-.35-1.07-.32-1.62.67-11.72,7.4-18.73,17.83-22.84a55.32,55.32,0,0,1,7.16-2.19c.7-.18,1.36-.31,1.21.79-.7,5.06-1.25,10.14-3.21,14.94a19.63,19.63,0,0,1-13.87,12c-1.47.39-2.75-.44-4.33-.41,1.09-1.66,2-3.2,4.15-3.32a18.73,18.73,0,0,0,3.52-.69c.36-.08,1-.06.87-.71s-.61-.47-1.06-.37l-4.29.92c2.21-2.69,4-5.16,6.15-7.34.78-.79,2.3-.84,3.47-1.27.38-.14,1.12-.06.83-.86s-.72-.22-1.09-.14l-1.44.36a7.41,7.41,0,0,1,5.18-4.65l.79-.21c.3-.08.7-.07.57-.57s-.41-.47-.76-.43l-1.62.23c1.19-1.48,2.28-2.82,3.36-4.18.24-.3.75-.62.2-1.07s-.75.1-1,.4l-2.78,3.39c-.45.09-.42-.13-.48-.26-.21-.45-.12-1.3-.89-1.09s-.25.94-.09,1.33a2.26,2.26,0,0,1-.58,2.64c-1.2,1.33-2.29,2.77-3.43,4.16C169.47,37.08,169.35,37.49,168.88,37.24Z" transform="translate(-14.55 -23.11)"/><path class="cls-5" d="M76.1,124.54c2.52-1.57,4.32-3.79,7.33-2.78a.52.52,0,0,0,.74-.41c.11-.42-.16-.61-.51-.66s-.84-.1-1.5-.16c2.13-1.56,4-3.28,6.73-2.33.36.13.94.28,1-.38s-.42-.67-.86-.74c-.21,0-.43,0-.65,0l-.9-.12c2.22-1.45,3.85-3.52,6.69-2.57a2.62,2.62,0,0,0,1,0c.3,0,.53-.14.55-.47s-.22-.45-.51-.5l-1.73-.31a12,12,0,0,1,2.53-2c.32-.25.84-.41.42-1s-.67-.08-1,.1c-1.09.7-2.17,1.43-3.46,2.29.11-.83.14-1.44.28-2s.07-.77-.42-.85-.61.28-.59.6c.18,3.23-2.28,4.4-4.48,5.77a1.16,1.16,0,0,1-.33.11c-.38-.6.17-1.12.15-1.68,0-.35.19-.81-.33-1s-.65.29-.65.67c0,3.38-2.67,4.5-5.22,6.1,0-.93,0-1.66,0-2.38,0-.37.06-.83-.52-.82s-.52.39-.46.7c.59,3.11-1.48,4.47-3.72,5.74-.51.3-1,.63-1.79,1.14,0-1,0-1.8,0-2.58,0-.35-.07-.69-.51-.68s-.48.36-.49.7a13.51,13.51,0,0,0,0,1.8c.21,1.49-.58,2.16-2,2.6a61.33,61.33,0,0,0,.46-8,.53.53,0,0,1,.08-.31c3.6-5,7.32-9.81,14.19-10.64a86.9,86.9,0,0,1,16.31-.22c-3.15,4.56-5.32,9.59-9,13.7-4.59,5.19-10.64,7.32-17.29,8.14-1.45.18-2.92.25-4.38.34-.34,0-.82.2-.95-.34a.8.8,0,0,1,.33-.87c1.57-1,2.82-2.59,5-2.44a20.94,20.94,0,0,0,3.25-.26c.36,0,.85,0,.77-.57s-.55-.41-.91-.42C78.05,124.53,77.29,124.54,76.1,124.54Z" transform="translate(-14.55 -23.11)"/><path class="cls-4" d="M48.25,290.49c-1.2-1.58-2.27-3-3.39-4.42a1.18,1.18,0,0,1-.11-1.33c4.46-12.17,4.85-24.78,4-37.52-.33-5.22-.69-10.43-.95-15.67a64.54,64.54,0,0,1,3.44,9.5c1.71,5.78,3.27,11.6,5,17.37.73,2.5,0,4.86-.36,7.26-1.07,7.84-2.91,15.47-6.51,22.58C49.06,288.94,48.71,289.61,48.25,290.49Z" transform="translate(-14.55 -23.11)"/><path class="cls-6" d="M181.47,77.13c-1.38.11-3.14-.34-4.94-.43a1.15,1.15,0,0,1-1.21-1,11,11,0,0,1,1.33-8.75,21.41,21.41,0,0,0,2.76-5.33,1.08,1.08,0,0,1,1-.85,33.92,33.92,0,0,0,11.89-4.64c1.06-.63,1.34-.39,1.83.59,1.83,3.66,3.17,7.38,2.09,11.57a2.77,2.77,0,0,1-1.74,2.14,8.52,8.52,0,0,0-4.2,3.23c-1.71,2.72-4.3,3.45-7.25,3.52C182.66,77.14,182.28,77.13,181.47,77.13Z" transform="translate(-14.55 -23.11)"/><path class="cls-5" d="M133.48,68.85a46,46,0,0,1,5.81,2,1.19,1.19,0,0,1,.69,1c.21,1.07.45,2.13.67,3.19.1.45.18.9.8.75s.3-.57.24-.91L141,71.47c1.66.69,3.12,1.33,4.61,1.91.81.32.74,1,.81,1.63.1,1,.08,2,.13,2.94,0,.42,0,1,.61,1s.57-.64.49-1.12a14.62,14.62,0,0,1-.11-3.53l3.7,1.57c.72.3.68,1,1,1.59s-.21,1.92.95,1.66c1-.23,0-1.18.12-1.79a3.5,3.5,0,0,0,0-.56c1.31.57,2.51,1.13,3.73,1.62.39.15.93.76,1.25.07s-.45-.83-.9-1c-.82-.4-1.65-.77-2.44-1.14,0-.57.48-.49.71-.68s.39-.35.21-.66-.38-.46-.65-.27c-2.39,1.71-4.14-.34-6.18-.9a2.35,2.35,0,0,1,.19-.37c.33-.38,1.35.09,1.19-.74s-1-.5-1.49-.33c-2.63,1-4.54-.87-7-1.55,1.06-.74,2.16-.66,3.09-1.07.27-.12.7-.07.62-.57s-.46-.54-.87-.46a.9.9,0,0,0-.16,0c-3.56,1.87-6.95.72-10.24-.74-2.52-1.12-4.9,0-7.33.18-1,.06-1.93.34-2.9.44-.37,0-1,.33-1.09-.29s.37-.93,1-1c2-.17,4-.41,6-.56,3.47-.27,6.94-.67,10.41-.7a27,27,0,0,1,18.79,7c2.15,1.93,4.22,4,6.3,5.94.35.33,1,.72,0,1.15-5.88,2.46-11.85,4.06-18.17,1.68-5-1.88-8.51-5.57-11.7-9.63A12.11,12.11,0,0,1,133.48,68.85Z" transform="translate(-14.55 -23.11)"/><path class="cls-5" d="M36.69,152.66c-1.06-1.44-2.11-2.9-3.21-4.32a2.77,2.77,0,0,1-.33-2.34c.81-5,3.46-9,6.7-12.67a56.75,56.75,0,0,1,6.07-5.94c.55-.47,1-.92,1.26.27,1.76,6.81,3.22,13.66,3.18,20.74a2,2,0,0,1-.54,1.63,44.34,44.34,0,0,0-8.36,10.45c0-1.29,0-2.57,0-3.86,0-1,1-1.36,1.58-2s1.17-1,1.73-1.5c.25-.22.72-.43.33-.91s-.68-.14-1,.1c-.79.64-1.56,1.31-2.54,2.14a33.78,33.78,0,0,1,.35-8c.08-.65.66-1,1.15-1.32,1-.76,2.11-1.53,3.16-2.31.25-.18.58-.38.26-.77s-.55-.26-.85,0l-3.16,2.22a24.75,24.75,0,0,1,1.45-5.8c.28-.94.68-1.84,1-2.75.15-.37.27-.77-.23-.95s-.62.29-.76.61a49.46,49.46,0,0,0-2.44,7.6c-.13.52-.25,1.05-.44,1.82-.84-1.16-1.55-2.16-2.28-3.15-.23-.31-.5-.65-.94-.36s-.07.65.08,1a1,1,0,0,0,.19.26c3,2.61,2.75,6,2.24,9.43-.12.85-.13,1.73-.2,2.75a14.08,14.08,0,0,1-2.12-2.59c-.23-.25-.35-.76-.87-.47s-.29.64-.18,1A.21.21,0,0,1,36.69,152.66Z" transform="translate(-14.55 -23.11)"/><path class="cls-5" d="M66.78,178.81c-1.54,4.18-3,8.09-4.44,12-2,5.25-2,5.24-7.66,5.39-.69,0-1.39,0-2.29,0,2.21-2.74,4.34-5.32,6.4-8,.41-.52,1.49-1.22.77-1.8s-1.14.62-1.53,1.13c-2.12,2.77-4.36,5.44-6.67,8-1.21,1.37-1.44,1.28-2.21-.33-.28-.57-.19-1.89-1.22-1.45-.86.36,0,1.25.27,1.8.42,1,.06,1.12-.84,1.29-4.1.79-8,2-11.14,5a15.89,15.89,0,0,0-4.48,9.73c-.15,1.19-.16,2.39-.23,3.59,0,.48.44,1.15-.49,1.25-.76.09-1.34,0-1.61-.94a14.29,14.29,0,0,1,.27-9.44c1.85-4.75,5.34-8.16,9.22-11.22,7.14-5.64,15.22-9.69,23.28-13.79C63.62,180.37,65.07,179.66,66.78,178.81Z" transform="translate(-14.55 -23.11)"/><path class="cls-5" d="M142.91,62.37c3.73-1.14,7-2.24,10.33-3.13,1.13-.3,2.07.79,3.14,1.14.39.13.9.76,1.22,0s-.41-.75-.82-1l-1.52-.79L161,56.83c.47-.14,1.08-.21.83-.91s-.76-.16-1.09-.07c-1.87.52-3.71,1.09-5.86,1.73.5-.91.83-1.52,1.16-2.14.15-.28.39-.59,0-.84a.56.56,0,0,0-.83.25,1.12,1.12,0,0,0-.16.28c-.85,2.8-3.19,3.52-5.65,4.18s-4.74,1.41-7.55,2.25c1.44-1.6,2.58-2.84,3.67-4.11.25-.3,1-.61.35-1.15s-.83.25-1.15.54a6.91,6.91,0,0,0-1.22,1.32c-2.48,4-6.57,5.19-10.8,6.11,1.39-5.48,7.87-11.15,13.7-12,6.41-1,12.67.08,18.91,1.36.6.12.86.35.51,1-2.75,4.94-6.15,9.24-11.51,11.59a2.57,2.57,0,0,1-2.31,0,8.38,8.38,0,0,0-2.91-1C146.74,65,145.34,63.18,142.91,62.37Z" transform="translate(-14.55 -23.11)"/><path class="cls-7" d="M127,98.29c.15,3.43-1.53,6-4.33,8a81.31,81.31,0,0,1-8.36,4.66c-1.17.63-1.37-.43-1.58-1a22.13,22.13,0,0,1-.66-3.18,33.41,33.41,0,0,0-2.91-8.41c-.22-.45-.71-.89.14-1.26,4-1.73,6.29-5.22,8.75-8.53a7.17,7.17,0,0,1,2.58-2.64,1.64,1.64,0,0,1,2,.29A7.5,7.5,0,0,1,125.21,92c0,.53-.11,1.06.34,1.53A6.2,6.2,0,0,1,127,98.29Z" transform="translate(-14.55 -23.11)"/><path class="cls-5" d="M67.27,118.86A43.22,43.22,0,0,0,69,111.33c0-.55.49-.83.84-1.16.71-.67,1.49-1.27,2.17-2,.37-.38,1.33-.73.76-1.35s-1.07.32-1.53.65a21.85,21.85,0,0,0-1.9,1.74,43.52,43.52,0,0,1,.37-9.15c.21-1.1,1.46-1.39,2.19-2.1a14.38,14.38,0,0,1,1.16-.9c.22-.18.4-.4.21-.69a.51.51,0,0,0-.83-.12L70,98.07c.39-3.18.75-6.1,1.11-9q.44-3.64.89-7.28c0-.39.19-.84-.34-.92s-.63.42-.69.86c-.68,5.51-1.38,11-2.12,16.94-.44-2-.8-3.51-1.14-5.07a36.94,36.94,0,0,0-2-6.87,3.71,3.71,0,0,1,.47-3.9,75.31,75.31,0,0,1,5.65-7.72,12.63,12.63,0,0,1,1.56,3.81c2.48,7.26,4.1,14.67,3.5,22.41A23,23,0,0,1,67.27,118.86Z" transform="translate(-14.55 -23.11)"/><path class="cls-6" d="M125.44,37.9l5.22-1.49a4,4,0,0,1,4.32,1.1c1,1.12,2.78,2,2.88,3.41s-1.94,1.88-3,2.82a39.11,39.11,0,0,0-5.52,5.77,1.85,1.85,0,0,1-1.26.94c-4.89.54-9.67.55-14-2.46a1.74,1.74,0,0,1-.73-2.5,21.23,21.23,0,0,1,9.53-11,4.57,4.57,0,0,1,3.9.45c.34.32.18.57,0,.84C126.43,36.43,126,37.05,125.44,37.9Z" transform="translate(-14.55 -23.11)"/><path class="cls-5" d="M206.5,28.92a23.6,23.6,0,0,1-6.88,10.45c-5.09,4.43-11.24,6.51-17.67,7.93a72.51,72.51,0,0,1-7.78,1.25c1.84-1.6,2.75-4.13,5.33-4.93a6.29,6.29,0,0,0,1.62-.75,4.32,4.32,0,0,1,5.76.19c.29.25.79.84,1.22.2.55-.82-.39-.83-.75-1.09a22.87,22.87,0,0,0-2-1.21c2.23-1,4.24-2.06,6.34-2.87,1.17-.46,2.24.53,3.39.73.68.12,1.7,1,2,.22.37-1.11-1.07-.82-1.68-1.19a10.4,10.4,0,0,0-1.53-.58c1.23-1,2.64-1.28,3.82-2,.32-.18.8-.24.56-.78s-.63-.33-1-.17c-1.33.59-2.65,1.2-4.35,2,.68-1,1.14-1.68,1.59-2.37.16-.25.51-.49.13-.83s-.68-.14-.93.2a26.35,26.35,0,0,0-1.8,2.53c-1.3,2.29-3.9,2.37-5.91,3.73-.2-.76.32-1.11.5-1.56s.44-.69,0-1-.74.06-.86.41c-1.07,3.1-3.73,4.18-6.66,5.17,1.41-3.11,2-6.34,5.8-8,6.69-2.92,13.4-5.39,20.76-5.69C205.77,28.91,206,28.92,206.5,28.92Z" transform="translate(-14.55 -23.11)"/><path class="cls-4" d="M58.83,262.64c.59,8.25,1.6,16.47,1.8,24.76,0,1.66.27,3.26-1.06,4.71-1.16,1.25-.13,2.82,0,4.23.32,2.73-.78,4.86-2.62,7.07-.21-1.54-.28-2.77-.56-4a11.25,11.25,0,0,0-5.06-6.76,1.69,1.69,0,0,1-.66-2.58c4.42-8.4,6.39-17.49,7.56-26.81C58.49,263.11,58.16,262.45,58.83,262.64Z" transform="translate(-14.55 -23.11)"/><path class="cls-5" d="M193.06,53.31c-4.36,2.69-8.65,4.85-13.56,5.49-1.07.15-1.74.5-1.93,1.73a12.83,12.83,0,0,1-2.32,4.82,12.58,12.58,0,0,0-1.94,10.1,5.22,5.22,0,0,1,0,1.12c-4-2.44-5.47-6.82-4.08-11.82a22.82,22.82,0,0,1,2-5.13c.53-.94.51-1.57-.55-2.07-.73-.34-1.37-.89-2.1-1.25s-1-.88-.58-1.79,1-1.32,1.91-.58c2.54,2.06,4.91,2,7.89.38a18.46,18.46,0,0,1,14.39-1.4A6.2,6.2,0,0,1,193.06,53.31Z" transform="translate(-14.55 -23.11)"/><path class="cls-4" d="M34.29,289c-11-11.07-15-25-17.68-39.76.77.3.8,1,1,1.44,2.67,5.71,5.33,11.43,9.15,16.5a15.86,15.86,0,0,0,2.63,3.11c2.51,1.95,3.43,4.56,3.88,7.55C33.85,281.45,33.9,285.12,34.29,289Z" transform="translate(-14.55 -23.11)"/><path class="cls-5" d="M85.23,73.72c-.89.26-1.58-.3-2.35-.23-.33,0-.68,0-.73.45s.3.55.63.54c3.21-.1,4.71,2.19,6.24,4.44.25.36.53.68.79,1,0,0,0,.11,0,.09-1.08,0-2.14,0-3.2,0-.35,0-.83-.15-.9.41s.39.53.76.57a13.6,13.6,0,0,0,2.75.25c1.75-.18,2.59.63,3.08,2.18a25.79,25.79,0,0,0,1.18,2.7c-11.28-3.92-17.21-12.32-15.22-25.6a37.71,37.71,0,0,1,9,5.48l.12.11C89.26,67.63,90.55,69.26,90,72c-.44,2.23.15,4.53.77,7.23a25,25,0,0,1-3.54-4.62c-.47-.8.17-1.67.21-2.52a11.72,11.72,0,0,1,.25-1.44c.07-.33.16-.67-.33-.74a.54.54,0,0,0-.67.51c-.13.75-.28,1.48-.47,2.42a24.14,24.14,0,0,1-2.54-4.24c-.36-.58-.45-1.93-1.26-1.53-1,.5.1,1.41.38,2C83.51,70.69,84.4,72.17,85.23,73.72Z" transform="translate(-14.55 -23.11)"/><path class="cls-8" d="M46.67,307.46a28.82,28.82,0,0,1-10.07-3.53c-1-.53-.81-1.71-1.19-2.57-.25-.57-.15-1.42-1.17-1.1s-.4.93-.28,1.45c1,4.37,2.39,8.59,5.71,11.87a.44.44,0,0,1,.06.65c-4.71-1.8-8.89-4.36-10.77-9.32a11.57,11.57,0,0,1,1.43-11.18,5.47,5.47,0,0,1,2-1.68c2-1.05,2.48-.86,3.29,1.21,2.08,5.36,5.88,9.33,10.33,12.78l1.43,1.07C47.41,307.75,47,307.54,46.67,307.46Z" transform="translate(-14.55 -23.11)"/><path class="cls-5" d="M154.4,40.45c-.67-.64-1-.3-1.31.38s-.55,1.36-1,2.52c-.73-3.05-1.35-5.6-1.94-8.17-.22-.94.66-1.27,1.08-1.86.24-.35,1-.57.55-1.12-.59-.7-.88.16-1.27.42a10.26,10.26,0,0,0-.8.68c-.32-1.27-.59-2.38-.88-3.5-.12-.5-.06-1.27-.87-1.07s-.23.79-.15,1.21c.18.9.39,1.79.59,2.71l-.34-.08c-.55-.18-1-1.34-1.55-.61-.71.89.52,1.1,1,1.45a4.39,4.39,0,0,1,1.83,2.91c.39,2.17,1,4.29,1.49,6.28l-3.37-3c-.27-.23-.51-.66-.94-.28s-.09.77.2,1.07a26.62,26.62,0,0,0,2.65,2.66c1.92,1.48,2.54,3.54,3,5.76.14.7,0,1-.75,1a4.44,4.44,0,0,1-4.3-1.64,15.46,15.46,0,0,1-3.64-10.07c0-4.95,1.4-9.62,3.2-14.37a21.35,21.35,0,0,1,3.25,3.69,33.9,33.9,0,0,1,4.74,7.77,5.21,5.21,0,0,1-.16,5.21C154.57,40.61,154.48,40.61,154.4,40.45Z" transform="translate(-14.55 -23.11)"/><path class="cls-5" d="M101.61,88.25a32.88,32.88,0,0,0,4-5.07,1.93,1.93,0,0,1,1.84-.79c1.58,0,3.16,0,4.74,0,.35,0,.85.1.88-.46s-.53-.56-.93-.56A21.7,21.7,0,0,1,107.6,81c1.47-1.42,2.89-2.89,4.41-4.24.86-.76,2-.21,3-.36.48-.07,1.28.25,1.25-.59,0-.68-.75-.4-1.19-.45s-.84,0-1.67,0c1.6-1.62,3-3,4.29-4.39.28-.3,1-.57.45-1.16s-.87.09-1.17.39c-1.36,1.4-2.7,2.82-4.33,4.53.08-1.31.17-2.13.18-3,0-.48.36-1.27-.47-1.31s-.52.74-.49,1.16c.21,3.59-1.6,6-4.58,8A55.2,55.2,0,0,0,109,73c0-.16.14-.32.13-.47-.31-3,1.59-4,4.07-4.52s4.65-1.09,7-1.6c.56-.13,1.22-.34.92.8-1.37,5.23-2.92,10.37-6.27,14.74S107.28,88.16,101.61,88.25Z" transform="translate(-14.55 -23.11)"/><path class="cls-5" d="M112.89,49.6c5.06,3.35,10.44,3.58,16,2.75a2.34,2.34,0,0,0,1.76-1.2A31.27,31.27,0,0,1,139.3,43c-.07,4.43-1.59,7.77-5.32,9.83A3.49,3.49,0,0,0,132,55.58c-.39,2.41-1.08,4.77-1.48,7.17-.23,1.36-.69,2.16-2.19,2.13-1,0-1.94.1-3.23.18l5.1-9.74c-2,.47-3.82,1-5.65,1.29a15.15,15.15,0,0,1-5.66.25A7.28,7.28,0,0,1,112.89,49.6Z" transform="translate(-14.55 -23.11)"/><path class="cls-9" d="M101,361.43c-1.68-7.5-3.34-14.53-3.34-22.15,3.21,2.16,6.18,4.13,9.13,6.13,1,.7,2.65,1.32,2.83,2.21s-1.07,2.11-1.74,3.15C105.72,354.19,103.51,357.6,101,361.43Z" transform="translate(-14.55 -23.11)"/><path class="cls-5" d="M57.44,138.91a11,11,0,0,1,6.17-7.18,13.51,13.51,0,0,0,1.81-1.11c.28-.19.76-.33.41-.85s-.64-.23-1,0a25.66,25.66,0,0,1-3.93,2.1c1.64-3.15,3.15-6.38,5-9.41.64-1,2.1-1.59,3.42-2.53a39.24,39.24,0,0,1-5,19.26,2.33,2.33,0,0,1-.79.8c-3.43,2.11-6.82,4.26-10.24,6.6a36.58,36.58,0,0,1,3.11-5.72c.7-.9,2.32-1,3.48-1.62.45-.22,1.5-.14,1.12-1s-1-.06-1.57.07A7.27,7.27,0,0,1,57.44,138.91Z" transform="translate(-14.55 -23.11)"/><path d="M79.38,323.8a44.67,44.67,0,0,0,6.77,5.14c.59.38.63,1,.76,1.56a183.65,183.65,0,0,0,6.22,22.08,1.93,1.93,0,0,1,0,.55c-3-3.8-6-7.54-9-11.27a6.09,6.09,0,0,1-1.26-2.59C81.82,334.25,80.64,329.24,79.38,323.8Z" transform="translate(-14.55 -23.11)"/><path class="cls-5" d="M130.19,84.21c.41-.07.53.22.71.4s.58.52.95.12,0-.62-.22-.8c-2.15-1.78-1-4.13-1-6.24,0-1.14.75-.28,1.12-.12s.63.51.95,0a.51.51,0,0,0-.24-.81c-2.2-.93-1.65-2.73-1.43-4.44.08-.59.12-1.19.18-1.79,3.43,1.7,6.3,7.48,5.8,11.79-.72,6.22-4,11.27-7.59,16.22-.19-1.47-1.24-2.8,0-4.4.48-.66.19-1.88.26-2.88.8,0,1,.66,1.47,1a.49.49,0,0,0,.71,0,.39.39,0,0,0,0-.68C128.77,89.61,130,86.8,130.19,84.21Z" transform="translate(-14.55 -23.11)"/><path class="cls-8" d="M108.09,344.45c-3.89-2.77-8.06-5.07-11.68-8.18-2.1-1.81-4.11-3.74-6.17-5.59-.34-.3-.66-1-1.28-.28a.46.46,0,0,1-.41.08c-.63-.32-.73-3.33-.14-3.75a3.75,3.75,0,0,1,4.24.65c1.83,2.36,3.65,4.73,5.49,7.09.34.43.56,1.13,1.37.48s.06-1-.23-1.42c-1.56-2.09-3.19-4.13-4.74-6.23-.3-.4-1.21-.8-.57-1.4a2.09,2.09,0,0,1,2.24-.6,2.25,2.25,0,0,1,1.08,1q5.38,8.64,10.78,17.27A.76.76,0,0,1,108.09,344.45Z" transform="translate(-14.55 -23.11)"/><path class="cls-8" d="M18.9,233.5c1.74,3.74,3.33,7.57,6.59,10.36.93.79.6,2.14.8,3.24,1.19,6.57,2.34,13.15,3.5,19.73.09.34-.06.43-.37.35-6.08-10.18-8.83-21.46-10.82-33C18.5,233.88,18.29,233.51,18.9,233.5Z" transform="translate(-14.55 -23.11)"/><path class="cls-8" d="M99.77,363c-5.71-9.63-8.3-20.28-11-30.92.49-.36.83.06,1.18.38,1.86,1.68,3.7,3.38,5.58,5a1.69,1.69,0,0,1,.63,1.4c-.09,7.85,1.75,15.42,3.41,23C99.65,362.26,99.7,362.63,99.77,363Z" transform="translate(-14.55 -23.11)"/><path class="cls-5" d="M129.89,69.61c.55,3.68-.39,6.32-3.29,8.14-.4.25-1.34.59-.61,1.32s.89-.29,1.27-.56a12.7,12.7,0,0,1,2-1.62c.64,2.64.16,4-1.9,5.47-.33.23-1.1.35-.6,1,.38.54.77,0,1.12-.14s.65-.38,1.3-.77c-.21,2.5-.37,4.72-.61,6.93a1.18,1.18,0,0,1-1.17,1c-.56,0-.45-.63-.55-1a9,9,0,0,0-3.41-5,2,2,0,0,1-.84-1.79,14.61,14.61,0,0,1,3.68-9.21C127.32,72.09,128.54,71,129.89,69.61Z" transform="translate(-14.55 -23.11)"/><path d="M86.3,105l4.79-4.77a1.75,1.75,0,0,1,1.36-.38c2.67,0,5.33,0,8,0a1.28,1.28,0,0,1,1.5,1.06,21.06,21.06,0,0,0,1.16,3.2c.39.82,0,1-.62,1-1.47,0-2.93,0-4.39-.08C94.2,104.87,90.32,104.86,86.3,105Z" transform="translate(-14.55 -23.11)"/><path class="cls-5" d="M52.38,145.63A73,73,0,0,0,51,135.29c-.21-1,0-1.5,1-1.86a24.83,24.83,0,0,0,9.55-5.89,27.32,27.32,0,0,1-2.18,4.93c-.46.47-.65,0-.9-.23s-.49-.62-.94-.25-.17.73.12.94c1.08.8.7,1.62.18,2.53-.67,1.17-1.26,2.38-2,3.85-.48-1.38-.87-2.47-1.25-3.56-.15-.42-.3-.89-.89-.67s-.2.62-.11.95a2.15,2.15,0,0,0,.2.62C55.84,140,54.55,142.79,52.38,145.63Z" transform="translate(-14.55 -23.11)"/><path class="cls-10" d="M44.15,238.72l.33.92a1,1,0,0,1-.47.4,1,1,0,0,0-.68,1.12c.13.73.81.26,1.15.53a2.53,2.53,0,0,1,0,.28c.53.66.33,1.9,1.58,2a.93.93,0,0,1,.69,1c-.49.2-1.08.18-1.39.72-.26.35-.43.77-.85,1l-.22,0a.47.47,0,0,1-.31-.3c.08-.92.45-1.94-.85-2.36a.61.61,0,0,1,0-.42c.18-.22.18-.22,0-.21a.65.65,0,0,1-.3-.06c-.35-.28-.6-1.09-1.1-.64-.69.62.09,1.26.31,1.88a.81.81,0,0,1-.07.46,1.17,1.17,0,0,1-1.3.33,1.35,1.35,0,0,1-.31-.53c-.14-.31-.35-.6-.69-.29a.56.56,0,0,0,0,.94c.25.19.61.13.88.29a.66.66,0,0,1,.22.63.77.77,0,0,1-.28.36c-.54.27-1.38.18-1.38,1.09s.7.84,1.22,1.08a.79.79,0,0,1,.44.52,3.44,3.44,0,0,1-.26,1.42,2.81,2.81,0,0,1-1.25,1.79,1.33,1.33,0,0,1-1.21-.08.37.37,0,0,1,.08-.6l.24-.21c.48-.36,1-.73.79-1.43a.22.22,0,0,0-.23-.18c-.71.19-.47.87-.68,1.32a1.11,1.11,0,0,1-.26.39c-.83,0-.56-.9-.95-1.26-1.52,0-.74,1.16-.88,1.83a.53.53,0,0,1-.66.49.69.69,0,0,1-.35-.28c-.22-.34-.28-1-.81-.85-.82.2-.42,1.12-.77,1.63a.79.79,0,0,1-.76.42c-.5-.61-.38-1.56-1.12-2a.61.61,0,0,1,.28-.57,2,2,0,0,0,1.21-2.34,1,1,0,0,1,.17-.43.78.78,0,0,1,.44-.13.69.69,0,0,1,.4.22l.08.13c.26.35,0,1.05.73,1.06.23,0,.35-.22.42-.43.23-.69-.25-.95-.75-1.18a.63.63,0,0,1-.37-.54,1.52,1.52,0,0,1,.88-.65c.42-.15.68-.4.55-.89a2.85,2.85,0,0,1,0-1.05,1.25,1.25,0,0,0-.28-1.48,3.06,3.06,0,0,1-.22-1.91,1,1,0,0,1,.31-.34l.22-.07a.52.52,0,0,1,.38.19c.31.42.13,1.06.72,1.45a2,2,0,0,0,.63-1.93c0-.38-.32-.67-.4-1a3.25,3.25,0,0,1,.41-1.81.69.69,0,0,1,.41-.2.8.8,0,0,1,.42.18,1,1,0,0,1,.17.6c0,.4-.15.92.47,1,.24,0,.36-.2.41-.42a.73.73,0,0,0-.55-1,3.57,3.57,0,0,1-.46-.16.69.69,0,0,1-.31-.77.65.65,0,0,1,.24-.35,5.14,5.14,0,0,1,1.66,0c.33.25.51.64.87.86,1.33.29,1-1.27,1.73-1.58a.57.57,0,0,1,.63.13h0C43.43,237.21,42.91,238.34,44.15,238.72Z" transform="translate(-14.55 -23.11)"/><path d="M63.14,316.89c-1.92-3.21-3.79-6.46-6-9.49-.61-.83-.63-1.52.45-2.09,1.37-.72,2.13-2.08,3.12-3.62l2.79,14.8C63.64,316.86,63.45,316.94,63.14,316.89Z" transform="translate(-14.55 -23.11)"/><path d="M124.67,72.09c-.42.6-.85,1.19-1.26,1.8a15.24,15.24,0,0,0-2.75,8.69c0,.59.12,1.28-.69,1.44-1.84.36-3.49,1.37-5.8,1.68A32.14,32.14,0,0,0,121.25,74c.5-1.27,2.12-1.36,3.09-2.21Z" transform="translate(-14.55 -23.11)"/><path class="cls-11" d="M38,238l-.39,0a1.8,1.8,0,0,1-1.64-.16,1.83,1.83,0,0,1-.55-.77,6.42,6.42,0,0,1-.15-.63c-.07-.3,0-.73-.5-.69s-.49.38-.54.71,0,.76,0,1.14-.16.72-.23,1.08a10.65,10.65,0,0,0-.34,1.94,2.13,2.13,0,0,1-.13.43,5.7,5.7,0,0,1-.79,1.32,6,6,0,0,0-1.5,1.86,1.35,1.35,0,0,1-.35.28,1.29,1.29,0,0,1-.9.19c-.23-.1-.37-.25-.3-.52.25-.66,1.27-1.06.72-2-.67-.08-.63.91-1.3.75l-.28-.32c-.54-.66-.11-1.15.27-1.66v0a1.39,1.39,0,0,0,.89-1.45c.57-1,1.12-1.95-.58-2.38a.94.94,0,0,1-.24-.64,1.2,1.2,0,0,1,.15-.45.89.89,0,0,1,.4-.2c1.2.26,1.55-.63,1.95-1.46a.87.87,0,0,1,.84.13c.45.26.89.41,1.23-.15a.68.68,0,0,0,.05-.75c-.28-.43-.66-.15-1-.09a.82.82,0,0,1-.44,0A1.32,1.32,0,0,1,32,233a.57.57,0,0,1,.27-.75,4.46,4.46,0,0,1,1.39-.54,2.07,2.07,0,0,1,.81.29,2.92,2.92,0,0,1,.95.9c0,.41-.43.89,0,1.19s.9-.08,1.3-.34c.49-.51,1.4-.81,1.12-1.75-.16-.56-.83-.06-1,.84-.05.31,0,.64-.18.92-.82.25-1-.46-1.33-.91-.21-.92.87-1.69.31-2.65a10.37,10.37,0,0,1-.26-1.35c0-.34.13-.63.53-.68a1.22,1.22,0,0,1,.59.69c.28.4,0,1.33.77,1.19s.49-1.1.77-1.65a.64.64,0,0,1,.33-.28c.34,0,.51.27.76.42l.42.4a3.23,3.23,0,0,0-.34.7c-.14.36-.24.77.14,1s.57-.33.9-.43c.31.51.92.91.59,1.65-.94.41-1.69,1-1.48,2.14a.48.48,0,0,1-.27.29c-.26,0-.75-.1-.35.45a1.56,1.56,0,0,1,.08.42,3.32,3.32,0,0,1-.56,1.92h0a.44.44,0,0,1-.62.05c-.35-.3-.23-.69-.21-1.06s.09-.68-.32-.82a.37.37,0,0,0-.42.18.74.74,0,0,0,0,1c.23.24.57.31.81.55A1.31,1.31,0,0,1,38,238Z" transform="translate(-14.55 -23.11)"/><path d="M105.28,90.48c-.35.34-.82.63-1,1-1.82,3.7-5.09,3-8.44,2.82,1-1.27,1.93-2.39,2.8-3.55a1.56,1.56,0,0,1,1.43-.54c1.52,0,3-.07,4.56-.11C104.94,90.05,105.32,89.85,105.28,90.48Z" transform="translate(-14.55 -23.11)"/><path class="cls-12" d="M38.54,272.09h-.22c-.33-.12-.46-.46-.72-.66a3.46,3.46,0,0,1-1-1.28c.32-.41-.07-.5-.29-.68a.63.63,0,0,1-.34-.68c.18-.13,0,0,.14-.09.54-.29,1.1-.6,1-1.33-.16-1-1.05-.14-1.47-.53l0,0c-.36-.38-.14-.69.1-1a1.17,1.17,0,0,1,.38-.24,4.15,4.15,0,0,0,1.53-.83.79.79,0,0,1,.74.42c.23.85-.13,1.93.94,2.47a1.9,1.9,0,0,1,.85,2c.22-.32.12-.71.21-1.06a.57.57,0,0,1,.31-.3,4.58,4.58,0,0,1,1.52.07.73.73,0,0,1,.38.52.74.74,0,0,1-.21.4c-.5.38-1.17.68-1,1.47.11.59.65.43,1.05.49a1,1,0,0,1,.83.68c-.08.34-.35.46-.63.59a1.84,1.84,0,0,1-.42.08,2.4,2.4,0,0,0-1.51.53.44.44,0,0,1-.34-.24C40.19,271.67,39.48,271.63,38.54,272.09Z" transform="translate(-14.55 -23.11)"/><path class="cls-13" d="M47.07,253.74c-.12,1.1.43,2.19,0,3.29a1.2,1.2,0,0,1-1.23.38c-.23-.23-.62-.07-.84-.37.07.66.78,0,.92.48a1.85,1.85,0,0,1,.11,1.82l-.27,0c-.38.23-.71,0-1.05-.12a1.53,1.53,0,0,1-.68-.55,1.72,1.72,0,0,0-.91-1.55c-.17-.41.17-.68.28-1,.53-1.12.29-1.79-1.05-1.83-.42-.28-.44-.6-.1-1,.54-.3,1.13-.47,1.66-.79a1.46,1.46,0,0,1,.65-.17c1.07,1.06,1.48-.14,2.1-.62a.35.35,0,0,1,.4.08v.68C46.87,252.9,46.65,253.32,47.07,253.74Z" transform="translate(-14.55 -23.11)"/><path class="cls-14" d="M41.85,244.85v-.24a.8.8,0,0,1,.39-.24.85.85,0,0,1,.65.19c0,.93.23,1.72,1.26,2v0c.14.19.26.22.33-.05l.57-.92c.51.5.64,1.49,1.69,1.26a.93.93,0,0,1,.07,1,1.74,1.74,0,0,0-.11.18c-.76.31-1,1.11-1.62,1.59a.46.46,0,0,1-.38-.16,1.65,1.65,0,0,1-.21-.42c-.12-.31,0-.84-.56-.79-.37,0-.5.38-.48.71,0,.65.48.56.91.49a1.15,1.15,0,0,1,.32,0,.69.69,0,0,1,.29.34,1.22,1.22,0,0,1-.48,1,2,2,0,0,1-.39.25A1.66,1.66,0,0,1,43,251a.89.89,0,0,1-.34-.3A2.91,2.91,0,0,1,42,249c0-.82.78-1.83-.63-2.24a.59.59,0,0,1-.26-.34C41.34,245.9,41.87,245.5,41.85,244.85Z" transform="translate(-14.55 -23.11)"/><path class="cls-15" d="M33.35,248.55a2.53,2.53,0,0,1,0,.28c-1.44.37-1.16,1.58-1.25,2.6l-.39.33c.06.92-.59,1.16-1.29,1.36a1.37,1.37,0,0,1-1-.31v-.7a3,3,0,0,0,1.29-2.62h.05c.29-.43.36-1,.66-1.38a2.34,2.34,0,0,0,1.36-2.21,1,1,0,0,1,.18-.38c.53-.29.41-1,.81-1.37a2.28,2.28,0,0,1,1.53-.3.86.86,0,0,1,.49.72c-.65.75-1.68,1.28-1.59,2.5a.65.65,0,0,1-.29.28C33.31,247.54,33.73,248.24,33.35,248.55Z" transform="translate(-14.55 -23.11)"/><path class="cls-16" d="M187.35,48l8.19,3.52-.13.4c-1.84-.62-3.63-1.54-5.57-1.58a2.45,2.45,0,0,1-2.65-2.07S187.24,48.17,187.35,48Z" transform="translate(-14.55 -23.11)"/><path class="cls-17" d="M42.2,272.41h.29c.41.63.15,1.58.93,2a.62.62,0,0,1,.16.38c-.12.47-.66.34-.89.66a3.78,3.78,0,0,1-.12.75c-.19.5-.45,1-.09,1.52.7,0,.69-.86,1.27-.94a.77.77,0,0,1,.42.08c.44.68-.29,1.35,0,2h0c-.64.38-1.17.95-2,1-.47-.24-.3-.84-.65-1.15a5.06,5.06,0,0,1-.34-2.21,1.62,1.62,0,0,1,0-.22.47.47,0,0,1-.09-.46c.6-1.33,0-1.67-1.22-1.52-.69.38-.92,0-1-.61.59-.13.92-.85,1.63-.71h0C41.28,273.32,41.62,272.57,42.2,272.41Z" transform="translate(-14.55 -23.11)"/><path class="cls-18" d="M36.28,228.89a.77.77,0,0,1-.33-.7c-.51-.86-1.42-.69-2.2-.84a.68.68,0,0,1-.06-1.07l.37-.41c1.41.42,1.4-.91,1.93-1.56l1.26,1c-.2.47-.78.91-.28,1.45.33.35.68-.16,1-.21l.57.7c-.29.3.34.67-.08,1h-.23A6.31,6.31,0,0,1,36.28,228.89Z" transform="translate(-14.55 -23.11)"/><path class="cls-19" d="M29.81,236.08h-.38a8.43,8.43,0,0,0-1.33-2l0,0a18.79,18.79,0,0,0,.66-2.66.35.35,0,0,1,0-.17c.1-.29.32-.3.57-.26.73.44.2,1.92,1.53,1.86.51.2,1,.33,1.52.57h0a.9.9,0,0,1,0,1.31l-.58-.33C30.32,234,30.25,235.26,29.81,236.08Z" transform="translate(-14.55 -23.11)"/><path class="cls-20" d="M44.1,258.65a.77.77,0,0,1,.7.33c-.1.19,0,0-.06.15-.26.46-.76,1-.37,1.44.54.64.81-.46,1.33-.38a3.56,3.56,0,0,1,1.37.73l0,.49c-1.2.19-1.51,1.12-1.75,2.11a.49.49,0,0,1-.4.15c-.51-.49-.67-1.29-1.4-1.59a1.1,1.1,0,0,1-.23-.37,2.42,2.42,0,0,1-.13-.65.83.83,0,0,0-.55-.82,12,12,0,0,0-1.16-.36.7.7,0,0,1-.3-.29.53.53,0,0,1,.12-.38,2.53,2.53,0,0,1,1-.37,1.49,1.49,0,0,1,.42,0C43.17,259.11,43.59,258.53,44.1,258.65Z" transform="translate(-14.55 -23.11)"/><path class="cls-21" d="M33.73,260.6l.36,0c.72.54,1-.3,1.49-.49a.78.78,0,0,1,.42.11,9.46,9.46,0,0,1,.22,2,.93.93,0,0,1-.2.41c-.51.22-1.23-.4-1.59.39s.33,1.16.69,1.66a.76.76,0,0,1-.07.47c-.36.33-.72.42-1.07,0-.77-.55-.42-1.57-.95-2.22C32.91,262,33.48,261.37,33.73,260.6Z" transform="translate(-14.55 -23.11)"/><path class="cls-22" d="M34.36,259.92l-1.3,0a2,2,0,0,1-.23-2.22c1.41-1.15,2.13-.88,2.51.95A1.32,1.32,0,0,1,34.36,259.92Z" transform="translate(-14.55 -23.11)"/><path class="cls-23" d="M28.1,234.12c1.33.07,1.41,1,1.33,2a2.51,2.51,0,0,0,0,.27c-.42.45-.71,1.2-1.55.66A2.2,2.2,0,0,1,28.1,234.12Z" transform="translate(-14.55 -23.11)"/><path class="cls-24" d="M45.15,270.16c-.34.45-.61,1-1.34.83a.64.64,0,0,1-.57-.42c-.22-2,.15-2.52,1.94-2.58a.82.82,0,0,1,.52.49,1.74,1.74,0,0,1,0,1.19C45.57,269.9,45.35,270,45.15,270.16Z" transform="translate(-14.55 -23.11)"/><path class="cls-25" d="M36.69,152.66H37c1.29,1.77,3.24,3.18,3,5.81Z" transform="translate(-14.55 -23.11)"/><path class="cls-26" d="M30.42,248.85c-.44-.06-.87.57-1.31,0a2.06,2.06,0,0,1,0-2.27,2.14,2.14,0,0,0,.13-.19,1.2,1.2,0,0,1,.88-.33c1.39.65,1.1,1.63.51,2.67Z" transform="translate(-14.55 -23.11)"/><path class="cls-27" d="M40.53,273.05c-.56.21-.79,1.16-1.63.71a2.85,2.85,0,0,1-.36-1.67c.37-.52.75-1.17,1.48-.87S40.45,272.41,40.53,273.05Z" transform="translate(-14.55 -23.11)"/><path class="cls-28" d="M29.75,227.57a2.26,2.26,0,0,1,1.94-.65c.28.24.21.55.21.86,0,1.25.5,1,1.17.44.34-.21.42-.94,1.07-.58a1.72,1.72,0,0,1,.15,1.4,2.12,2.12,0,0,1-.44.84,8,8,0,0,1-1.82.75.55.55,0,0,1-.41-.11c-.22-.28-.32-.63-.53-.92a2.32,2.32,0,0,1-.3-.56C30.74,228.34,30.19,228,29.75,227.57Z" transform="translate(-14.55 -23.11)"/><path class="cls-29" d="M33.35,228.57c-.55.07-.71,1.12-1.42.65-1-.63-.31-1.51-.24-2.3l.35-.32C33.5,226.4,33.69,226.69,33.35,228.57Z" transform="translate(-14.55 -23.11)"/><path class="cls-30" d="M45.15,263.57c-.06-2.33.05-2.46,1.87-2.16,0,1.15.13,2.41-1.57,2.51A.39.39,0,0,1,45.15,263.57Z" transform="translate(-14.55 -23.11)"/><path class="cls-22" d="M44.48,241.69c-.38.24-.63.87-1.21.49s-.49-1.05-.4-1.63c.14-1,.89-.93,1.61-.91C45.08,240.32,44.77,241,44.48,241.69Z" transform="translate(-14.55 -23.11)"/><path class="cls-27" d="M35.63,266.84c.57-.15,1.07-.94,1.71-.4a1.39,1.39,0,0,1,.13,1.64c-.26.64-.71,1.07-1.49.71A3.22,3.22,0,0,1,35.63,266.84Z" transform="translate(-14.55 -23.11)"/><path class="cls-22" d="M29.75,227.57c1.47-.27,1.31.76,1.33,1.66-.61,1.43-.85,1.51-1.86.63A2,2,0,0,1,29.75,227.57Z" transform="translate(-14.55 -23.11)"/><path class="cls-31" d="M28.78,231.48a2,2,0,0,1-.66,2.66c-1.22,0-.9-.95-.92-1.61C27.18,231.44,28,231.5,28.78,231.48Z" transform="translate(-14.55 -23.11)"/><path class="cls-32" d="M154.4,40.45h.25A33,33,0,0,0,153.36,47c-.37.22-.45-.11-.59-.32C152.09,44.26,153.81,42.51,154.4,40.45Z" transform="translate(-14.55 -23.11)"/><path class="cls-33" d="M39.89,274.37c.54-.26,1.12-1.06,1.68-.49.8.83-.06,1.66-.37,2.47C39.67,276.41,39.91,275.31,39.89,274.37Z" transform="translate(-14.55 -23.11)"/><path class="cls-27" d="M39.2,234.14c-.55-1.87-.21-2.35,1.64-2.29,0,.1.07.2.11.3a1.87,1.87,0,0,1-.63,2.38A.77.77,0,0,1,39.2,234.14Z" transform="translate(-14.55 -23.11)"/><path class="cls-33" d="M45.72,260.32c-.46.39-.56,1.28-1.4,1.14-.42-.07-.49-.53-.5-.92,0-.74,0-1.46,1-1.56l1,.34V260C45.89,260.13,45.86,260.23,45.72,260.32Z" transform="translate(-14.55 -23.11)"/><path class="cls-34" d="M42.18,279.93a1.82,1.82,0,0,1,2-1,4.28,4.28,0,0,1,0,.8c-.13.71-.07,1.71-1,1.77S42.43,280.53,42.18,279.93Z" transform="translate(-14.55 -23.11)"/><path class="cls-35" d="M30.73,249.49c.53,1.68.22,2.31-1.29,2.62C29.26,250.94,28.49,249.47,30.73,249.49Z" transform="translate(-14.55 -23.11)"/><path class="cls-29" d="M29.11,243c.49-.46.4-1.44,1.3-1.51.37,0,.57.29.61.63a1.76,1.76,0,0,1-1,2l-.3.15-.16.1-.16-.11Z" transform="translate(-14.55 -23.11)"/><path class="cls-36" d="M33.73,260.6a2.64,2.64,0,0,1-.7,2.32c-1.21-.19-1.27-1.07-1-1.93S33,260,33.73,260.6Z" transform="translate(-14.55 -23.11)"/><path class="cls-26" d="M46.73,246.84c-1.51.89-1.61.82-1.69-1.26.37-.75.84-1.22,1.7-.61C46.74,245.6,46.73,246.22,46.73,246.84Z" transform="translate(-14.55 -23.11)"/><path class="cls-37" d="M30.41,257.67c0-.87-.69-1.74,0-2.6l.2-.18a1.23,1.23,0,0,1,1.6.5,1.39,1.39,0,0,1,.1.78C31.91,257,31.94,258.31,30.41,257.67Z" transform="translate(-14.55 -23.11)"/><path class="cls-38" d="M36,224.31c0,.75.11,1.51-.7,2-.58.33-.88-.09-1.23-.42C34.32,224.87,34.16,223.37,36,224.31Z" transform="translate(-14.55 -23.11)"/><path class="cls-39" d="M46.05,243.94c-1.49.44-1.57.35-1.58-2C45.89,241.54,46.18,241.89,46.05,243.94Z" transform="translate(-14.55 -23.11)"/><path class="cls-40" d="M142.91,64.07h-4.82a5.14,5.14,0,0,1,5.42-.34C143.57,64.31,143.23,64.17,142.91,64.07Z" transform="translate(-14.55 -23.11)"/><path class="cls-41" d="M45.15,263.57l.3.35a1.61,1.61,0,0,1,0,.31h0l.73.06a14.94,14.94,0,0,1-.55,2.47.58.58,0,0,1-.37.24c-.86-.07-.6-1.71-1.81-1.31a.74.74,0,0,1-.41-.16,1.16,1.16,0,0,1-.31-.84.54.54,0,0,1,.27-.34c.65-.12,1.07-.75,1.76-.78Z" transform="translate(-14.55 -23.11)"/><path class="cls-42" d="M45.53,267c0-1-.32-2,.65-2.74,1.13,1,.84,1.95-.06,2.91a.44.44,0,0,1-.36.13A.34.34,0,0,1,45.53,267Z" transform="translate(-14.55 -23.11)"/><path class="cls-19" d="M29.22,229.86c1,.83,1.34-.12,1.86-.63l.31.26c.08.36-.7,1,.32,1h0a1.63,1.63,0,0,1,.35,1.95l0,0a.47.47,0,0,1-.79-.19A2.42,2.42,0,0,0,29.57,231a.89.89,0,0,0-1.1.23h-.7c0-.72.14-1.29,1-1.29Z" transform="translate(-14.55 -23.11)"/><path class="cls-43" d="M40.18,234.37a3.58,3.58,0,0,0,.77-2.22c.59-.11.26.57.59.69.24.79-.26,1.9,1,2.28l.66,1.3h-.66c-.45.26-.84,0-1.24-.14A1.18,1.18,0,0,1,41,236c-.25-.4-.39-.86-.66-1.25A.85.85,0,0,1,40.18,234.37Z" transform="translate(-14.55 -23.11)"/><path class="cls-44" d="M32.37,260c-.41.11-.67.8-1.1.48-.68-.51-.55-1.35-.52-2.11a1.23,1.23,0,0,1,1.66,0A1.34,1.34,0,0,1,32.37,260Z" transform="translate(-14.55 -23.11)"/><path class="cls-45" d="M40.25,230.2c0,.64-.22,1.1-.88,1.1a.8.8,0,0,1-.72-.79c0-.68-.14-1.47.9-1.57Z" transform="translate(-14.55 -23.11)"/><path class="cls-24" d="M45.78,257.36c.43-.13.81-.47,1.31-.33,0,.64,0,1.29,0,1.92s-.43.94-1,.39a4.69,4.69,0,0,1-.26-2Z" transform="translate(-14.55 -23.11)"/><path class="cls-24" d="M38,226.59c-.09.58-.33,1-1,1s-.67-.47-.67-.93c0-.64-.06-1.35.93-1.29Z" transform="translate(-14.55 -23.11)"/><path class="cls-46" d="M34,265.14c.35,0,.75.16,1-.24,1-.36.94.35,1,1l-.31,1c-.33-.1-.3,1-.76.26S33.85,266,34,265.14Z" transform="translate(-14.55 -23.11)"/><path class="cls-47" d="M28.79,229.88l-1,1.29c-1.15-.57-.69-1.36-.23-2.09a.73.73,0,0,1,.84-.33C28.89,229,28.72,229.48,28.79,229.88Z" transform="translate(-14.55 -23.11)"/><path class="cls-48" d="M27.84,237c.65.11,1-.62,1.55-.66l.06.8a3.12,3.12,0,0,1,0,2.94.54.54,0,0,1-.7-.11.62.62,0,0,1,0-.27c-.48-.6-.51-1.42-1-2Z" transform="translate(-14.55 -23.11)"/><path class="cls-35" d="M44.78,271.41c.3-.48.87-1,1.18-.37a1.81,1.81,0,0,1-.68,2.34,1.36,1.36,0,0,1-.46.12,1.15,1.15,0,0,1-.33-.46A1.74,1.74,0,0,1,44.78,271.41Z" transform="translate(-14.55 -23.11)"/><path class="cls-49" d="M44.75,273.11c0,.13,0,.26.07.39l.31.5c-.24.88-1,1.76,0,2.66,0,.35.06.72-.24,1-.43,0-.51-.37-.68-.63l-.4,0a1.46,1.46,0,0,1-.44-.87,1.59,1.59,0,0,1,.09-.75c.07-.22.23-.43,0-.67h0c-.11-.77.39-1.22.88-1.67A.31.31,0,0,1,44.75,273.11Z" transform="translate(-14.55 -23.11)"/><path class="cls-50" d="M42.51,235.12c-1.42.19-1.65-.35-1-2.28A2.27,2.27,0,0,1,42.51,235.12Z" transform="translate(-14.55 -23.11)"/><path class="cls-51" d="M27.77,237.7c1.58.06.79,1.29,1,2-.39.08-1,1.09-1.05-.26C27.7,238.87,27.17,238.28,27.77,237.7Z" transform="translate(-14.55 -23.11)"/><path class="cls-52" d="M44.75,249.48l.43,0c.68.16,1.25.18,1.22-.79a1.11,1.11,0,0,1,.36-.84l0,0c.62,1.28.14,2.64.28,4h-.31c-.59-.25-1.13-.62-1.7-.9-.31-.29-.09-.72-.27-1l0-.38Z" transform="translate(-14.55 -23.11)"/><path class="cls-53" d="M34.36,259.92l.61-.76c.21-.36.44-.19.62,0a.75.75,0,0,1,0,1.13c-.59.23.09,1.31-.85,1.28-.63,0-.25-.76-.66-.94Z" transform="translate(-14.55 -23.11)"/><path class="cls-29" d="M44.15,238.72c-1.42.24-1.67-.33-1-2.3A2.31,2.31,0,0,1,44.15,238.72Z" transform="translate(-14.55 -23.11)"/><path class="cls-24" d="M45.12,276.66c-1.38-.59-1.37-1.47,0-2.66C46,274.89,45,275.77,45.12,276.66Z" transform="translate(-14.55 -23.11)"/><path class="cls-54" d="M29.11,246.56c-1.23-.38-.86-1.53-.84-2.26s.74-.19,1.16,0h0a1.62,1.62,0,0,1-.31,2.3Z" transform="translate(-14.55 -23.11)"/><path class="cls-55" d="M44.75,273.11l-.17,0A2.23,2.23,0,0,1,43.13,272l-.59-.56a.74.74,0,0,1,.39-.8.73.73,0,0,1,.68.13l.2.24c.2.44.58.43,1,.42Z" transform="translate(-14.55 -23.11)"/><path class="cls-45" d="M29.1,241l-.27,1.66c-.07.31-.09.72-.49.73s-.25-.4-.29-.62C27.89,241.88,27.23,240.66,29.1,241Z" transform="translate(-14.55 -23.11)"/><path class="cls-56" d="M128.49,91.24V93.5C126.92,92.54,126.9,92.13,128.49,91.24Z" transform="translate(-14.55 -23.11)"/><path class="cls-57" d="M29.44,252.81h1a1.15,1.15,0,0,1,.68,1.25,1.19,1.19,0,0,1-.69,1h0C29.42,254.6,29.78,253.55,29.44,252.81Z" transform="translate(-14.55 -23.11)"/><path class="cls-58" d="M32.37,258.34H30.75a.66.66,0,0,1-.34-.67c1.26.18,1.19-1,1.64-1.62.43-.11.47.19.51.49a3.55,3.55,0,0,0-.1,1.62Z" transform="translate(-14.55 -23.11)"/><path class="cls-59" d="M45.7,267.14l.42.06c.51.45,1,.91.38,1.62a.19.19,0,0,1-.18-.21c-.16,0,0,.11,0,.15,0,.35.09.73-.17,1h0a.53.53,0,0,1-.75,0l0-1.4C45.63,268,45.29,267.49,45.7,267.14Z" transform="translate(-14.55 -23.11)"/><path class="cls-22" d="M28.76,240h.6c.24-.15.4-.52.78-.3.57,1.18.2,1.59-1.05,1.31C29,240.66,28.4,240.49,28.76,240Z" transform="translate(-14.55 -23.11)"/><path class="cls-60" d="M44.2,277a.91.91,0,0,1,.68.63c-.1.52-.19,1-.73,1.3C43.27,278.28,44.06,277.66,44.2,277Z" transform="translate(-14.55 -23.11)"/><path class="cls-20" d="M33.35,228.57c0-.94.22-2-1.31-2l0-.36c.41-.21.81-.35,1.21,0l.41,0c0,.37-.09.77.34,1a.21.21,0,0,1-.08.32Z" transform="translate(-14.55 -23.11)"/><path class="cls-61" d="M41.19,276.57c.56.67.28,1.46.34,2.21C41.29,278.06,39.94,277.52,41.19,276.57Z" transform="translate(-14.55 -23.11)"/><path class="cls-62" d="M32.37,260v-1.63l.05-.11c.08-.25.12-.52.43-.61l.18.07,0,2.27Z" transform="translate(-14.55 -23.11)"/><path class="cls-63" d="M33.28,226.26l-1.21,0a2.12,2.12,0,0,1,1.42-1.14C33.83,225.57,33.3,225.87,33.28,226.26Z" transform="translate(-14.55 -23.11)"/><path class="cls-64" d="M45.72,260.32a1.23,1.23,0,0,0,.07-.32c.67,0,1.47-.25,1.28.92A1,1,0,0,1,45.72,260.32Z" transform="translate(-14.55 -23.11)"/><path class="cls-60" d="M31.38,248.19c.19.61.3,1.19-.6,1.29l-.36-.63h0c.24-.26.38-.63.77-.73Z" transform="translate(-14.55 -23.11)"/><path class="cls-65" d="M38.49,228.25c-.14-.33-.83-.71.08-1l.56,1.25A.61.61,0,0,1,38.49,228.25Z" transform="translate(-14.55 -23.11)"/><path class="cls-66" d="M58.83,262.64l-.56.66c-.18-.68.18-1.21.4-1.92A1.58,1.58,0,0,1,58.83,262.64Z" transform="translate(-14.55 -23.11)"/><path class="cls-67" d="M28.47,231.18c.22-.41.2-1.18,1-.64.11.2.15.38-.09.52l-.63.25A.64.64,0,0,0,28.47,231.18Z" transform="translate(-14.55 -23.11)"/><path class="cls-68" d="M18.9,233.5l-.3.7a2.17,2.17,0,0,1-.27-1.65A1.24,1.24,0,0,1,18.9,233.5Z" transform="translate(-14.55 -23.11)"/><path class="cls-69" d="M46.67,307.46l.74-.35a.91.91,0,0,1,.71.53A1.5,1.5,0,0,1,46.67,307.46Z" transform="translate(-14.55 -23.11)"/><path class="cls-31" d="M47.07,253.74c-1.16-.42-.16-.84,0-1.26C47.08,252.9,47.08,253.32,47.07,253.74Z" transform="translate(-14.55 -23.11)"/><path class="cls-70" d="M199,65c.14-.24.35-.2.54-.09s.45.11.32.38c0,.08-.29.09-.44.08S199,65.23,199,65Z" transform="translate(-14.55 -23.11)"/><path class="cls-71" d="M142.91,64.07l.6-.34,1.06.45C143.8,64.4,143.34,64.41,142.91,64.07Z" transform="translate(-14.55 -23.11)"/><path class="cls-72" d="M45.37,269.8h.75c0,.19.11.48,0,.56-.38.33-.66-.11-1-.19C45.23,270,45.3,269.92,45.37,269.8Z" transform="translate(-14.55 -23.11)"/><path class="cls-57" d="M46.1,269.8v-1.74c.55.11.27.52.4.76C46.43,269.17,46.47,269.57,46.1,269.8Z" transform="translate(-14.55 -23.11)"/><path class="cls-73" d="M63.14,316.89l.36-.4a1.15,1.15,0,0,1,.21,1.22C63.29,317.58,63.23,317.23,63.14,316.89Z" transform="translate(-14.55 -23.11)"/><path class="cls-74" d="M54.33,205.39l.63.3c-.35.3-.8.5-1.13.17C53.66,205.69,54.08,205.48,54.33,205.39Z" transform="translate(-14.55 -23.11)"/><path class="cls-75" d="M105.28,90.48c-.13-.31-.44-.24-.67-.34.35-.3.8-.48,1.13-.16C105.91,90.15,105.53,90.38,105.28,90.48Z" transform="translate(-14.55 -23.11)"/><path class="cls-76" d="M37.6,271.43c.48,0,.68.23.72.66C37.61,272.38,37.69,271.81,37.6,271.43Z" transform="translate(-14.55 -23.11)"/><path class="cls-30" d="M36.32,269.47c.28,0,.64-.42.81,0a.52.52,0,0,1-.52.66Z" transform="translate(-14.55 -23.11)"/><path class="cls-77" d="M29.42,267.18l.37-.35c.24.33.53.71.11,1C29.8,267.94,29.47,267.51,29.42,267.18Z" transform="translate(-14.55 -23.11)"/><path class="cls-78" d="M152.77,46.65l.59.32c0,.26-.07.51-.1.77A1.18,1.18,0,0,1,152.77,46.65Z" transform="translate(-14.55 -23.11)"/><path class="cls-5" d="M30.67,219.68c-.27-.51-.42-1.24-1.19-1.15-1.11.13-1.38-.59-1.65-1.4a15.69,15.69,0,0,1-1.07-5.41,6.37,6.37,0,0,0-.44-2.39c-1.62-4.43-3.18-8.89-4.85-13.31a79.15,79.15,0,0,0-4.35-10.34c-.48,2.83-.91,5.23-1.27,7.65-1.07,7-1.84,14.14-.8,21.26.75,5.15,2.8,9.57,7.52,12.37,1.66,1,3.13,1.35,4.67-.16a14.11,14.11,0,0,1,2-1.41C32.47,223.19,32.47,223.19,30.67,219.68Zm-3.41,4.09c-.55.3-.68-.17-.83-.47-2-4.13-5.86-6.68-8.81-10-.29-.34-1.18-.59-.61-1.24.69-.8,1,.17,1.36.5,1.41,1.43,2.76,2.92,4.13,4.39l.39-.4c-1.61-4.24-2.59-8.74-5.42-12.47-.31-.4-1.26-1.06-.39-1.56s.88.69,1.29,1.11a2.9,2.9,0,0,0,.91.85c-.13-1.18-.17-2.38-.41-3.54-.29-1.46-.17-2.94-.35-4.4-.05-.42-.18-.94.5-.95s.56.56.56,1a49.38,49.38,0,0,0,1,8.57c.1.53.24,1,.39,1.71l.31-.46c.3-.37.26-1.31,1-.94s.18,1-.07,1.4A4.63,4.63,0,0,0,22,211a58.46,58.46,0,0,0,2.77,7,2.31,2.31,0,0,0,.33-.36c.3-.54-.45-1.72.65-1.65.81.05.43,1.13.34,1.67a6,6,0,0,0,1.16,5C27.51,223,27.89,223.42,27.26,223.77Z" transform="translate(-14.55 -23.11)"/><path class="cls-79" d="M192.49,65.77c-.38.38-.58,1-1.23,1.15a8.28,8.28,0,0,1-2.17-2.07c.39-.42.61-1,1.26-1.17A6,6,0,0,1,192.49,65.77Z" transform="translate(-14.55 -23.11)"/><path class="cls-80" d="M183.41,66.89c-.57-.41-1.64-.15-1.43-1.06.15-.66,0-1.77,1.13-1.82.52,0,1.47-.15,1.33.91A2.52,2.52,0,0,1,183.41,66.89Z" transform="translate(-14.55 -23.11)"/><path class="cls-81" d="M182,72.55c.1.78-.08,1.19-.92,1.17-.68,0-1-.23-.95-.94s-.07-1.19.87-1.17C181.68,71.62,182.12,71.78,182,72.55Z" transform="translate(-14.55 -23.11)"/><path class="cls-82" d="M117.69,103.28c-.25.4.78,1.88-1.11,1.65-1.71-.21-.59-1.4-.73-2.1-.1-.53-.32-1.46.92-1.41S118,102.13,117.69,103.28Z" transform="translate(-14.55 -23.11)"/><path class="cls-83" d="M123.8,101.09c-.32-.64-1.58-.21-1.22-1.2.3-.79,0-2.06,1.27-2.23.44-.06,1.44.12,1.26.79C124.88,99.32,124.81,100.42,123.8,101.09Z" transform="translate(-14.55 -23.11)"/><path class="cls-84" d="M119.6,93.77a1.58,1.58,0,0,1,1,1.35c0,1.07-1.11,1.19-1.8,1.45s-1.08-.84-1.06-1.21C117.81,94.34,119.09,94.53,119.6,93.77Z" transform="translate(-14.55 -23.11)"/><path class="cls-85" d="M124.93,41.93c-.47.71-1.36.72-2,1.1-.47.27-.77.07-1-.44a4.52,4.52,0,0,0-1.44-2.1c-.3-.21-1-.38-.62-.92s1-1,1.49-.71a30.67,30.67,0,0,1,3.27,2.42C124.77,41.4,124.81,41.66,124.93,41.93Z" transform="translate(-14.55 -23.11)"/><path class="cls-86" d="M129.45,44.07c-.41.44-.7,1.19-1.29,1.08s-1.26-.66-1.14-1.3c.08-.42.6-1.17,1.24-1A2.09,2.09,0,0,1,129.45,44.07Z" transform="translate(-14.55 -23.11)"/><path class="cls-87" d="M35.6,260.29c0-.51.11-1-.63-1.13,0-2-.22-2.09-1.94-1.47h0a.94.94,0,0,1-.42-1,.89.89,0,0,1,.34-.3c1.5-.86,1.56-1.18.37-2a1.32,1.32,0,0,1-.62-.29.33.33,0,0,1,0-.42l.62-.32c.7-.07,1.24-.6,2-.65h0c.24.18.5.36.44.72-.32.93-.58,1.83.81,2.1a.94.94,0,0,1,.48.46.58.58,0,0,1-.1.42,2.31,2.31,0,0,1-1.57.59l-.17-.14a1.11,1.11,0,0,1,.2.19c.37.69.41,1.68,1.53,1.68a1.37,1.37,0,0,1,.74.51.53.53,0,0,1-.08.44,3.46,3.46,0,0,1-1.74.54H35.6Z" transform="translate(-14.55 -23.11)"/><path class="cls-88" d="M33.67,238.67c0-.36,0-.75.38-1,.45-.36.89-.78,1.56-.64a.72.72,0,0,1,.37.7c.26.8-.31,2,1.15,2.21a1.19,1.19,0,0,1,.81.69,2.45,2.45,0,0,1-2,.66l-.28,0,0-.12c-.07,0-.1,0-.09.08s0,.06.1.06l-.36.29a1.64,1.64,0,0,1-1.57.38.89.89,0,0,1-.38-1l0,0,.4-.28C35.15,239.8,35.13,239.41,33.67,238.67Z" transform="translate(-14.55 -23.11)"/><path class="cls-89" d="M32.74,253.75l-.13.3a.9.9,0,0,1-.67.87c-.66.06-1-.42-1.23-.89a1.62,1.62,0,0,0-.31-1.22c.64-.1.88-.69,1.32-1.05C33.12,251.88,32.8,252.88,32.74,253.75Z" transform="translate(-14.55 -23.11)"/><path class="cls-26" d="M44.15,246.57c-1.64.1-1.88-.24-1.39-2-.06-.34.1-.52.44-.55C44.83,244.14,44.91,244.34,44.15,246.57Z" transform="translate(-14.55 -23.11)"/><path class="cls-26" d="M33.67,242a3,3,0,0,1,1.63-.33c.44.51.06,1.17.31,1.71a.42.42,0,0,1-.29.54,2.63,2.63,0,0,1-1.65.36l-.17-.18a2.32,2.32,0,0,1,0-1.93C33.56,242.11,33.61,242.05,33.67,242Z" transform="translate(-14.55 -23.11)"/><path class="cls-33" d="M36,241.33a2.57,2.57,0,0,1,2-.66c0,.22,0,.43,0,.65,0,.9-.26,2-1.18,2S36,242.11,36,241.33Z" transform="translate(-14.55 -23.11)"/><path class="cls-24" d="M40.52,240.41c0-.79.26-1.34,1.1-1.35.61,0,.93.33.86.91-.08.77-.29,1.6-1.24,1.62C40.51,241.6,40.57,240.89,40.52,240.41Z" transform="translate(-14.55 -23.11)"/><path class="cls-22" d="M37.13,240c-.41.25-.9.63-1.25.05a2.19,2.19,0,0,1,.1-2.26,2.15,2.15,0,0,1,1.64.28A3.61,3.61,0,0,1,37.13,240Z" transform="translate(-14.55 -23.11)"/><path class="cls-22" d="M35.31,252.78c-.55.51-1,1.42-2,.65,0-.21,0-.42,0-.64,0-.75-.11-1.62,1-1.64S35.23,252.08,35.31,252.78Z" transform="translate(-14.55 -23.11)"/><path class="cls-90" d="M34.11,247.19c-.4-1.43,0-2.36,1.59-2.57.18,0,.26.06.23.24l0,1.38c0,.48-.31.73-.65,1s-.61.38-1,.22A.27.27,0,0,1,34.11,247.19Z" transform="translate(-14.55 -23.11)"/><path class="cls-27" d="M38.26,237.07l.32-2.29c.53-.47,1.08-.19,1.62,0a1.47,1.47,0,0,1-.33,2.27A1.17,1.17,0,0,1,38.26,237.07Z" transform="translate(-14.55 -23.11)"/><path class="cls-27" d="M32.11,251.43c-.87-1.9-.46-2.75,1.25-2.6A1.71,1.71,0,0,1,32.11,251.43Z" transform="translate(-14.55 -23.11)"/><path class="cls-91" d="M38.23,248c-.17.52-.23,1.39-1.13,1.39-.64,0-.79-.71-.77-1.26s.29-1.28,1.16-1.27C38.18,246.9,38.28,247.33,38.23,248Z" transform="translate(-14.55 -23.11)"/><path class="cls-57" d="M40.12,249.12c-.84-.05-1.57-.05-1.52-1.32,0-1.55,1.14-1.08,1.95-1.24A2.1,2.1,0,0,1,40.12,249.12Z" transform="translate(-14.55 -23.11)"/><path class="cls-90" d="M34.69,247.9c.63-.05,1.23-.05,1.27.82a1.73,1.73,0,0,1-.83,1.66c-.52.31-1,0-1.07-.56a7.91,7.91,0,0,1,0-1.29C34.07,248.14,34.38,248,34.69,247.9Z" transform="translate(-14.55 -23.11)"/><path class="cls-35" d="M42.14,244.59H42l-.15,0c-1-.24-.89-1.07-.94-1.76s.39-.85,1-.86c.91,0,1,.61,1,1.3a.3.3,0,0,1,.1.36A1.45,1.45,0,0,1,42.14,244.59Z" transform="translate(-14.55 -23.11)"/><path class="cls-91" d="M40.22,242.13A1.19,1.19,0,0,1,39,243.47c-.59.06-.71-.59-.74-1.05A1.22,1.22,0,0,1,39.52,241C40.23,241,40.21,241.55,40.22,242.13Z" transform="translate(-14.55 -23.11)"/><path class="cls-33" d="M38.23,238c1-.47,1.71-.36,1.64,1,0,.65-.21,1.41-1.06,1.29s-.92-.77-.75-1.49c.07-.26.12-.51.18-.77Z" transform="translate(-14.55 -23.11)"/><path class="cls-33" d="M37.71,243.65c.51.08.92.31.72.84s0,1.65-1.08,1.72c-.72,0-.71-.49-.73-1A1.44,1.44,0,0,1,37.71,243.65Z" transform="translate(-14.55 -23.11)"/><path class="cls-45" d="M40.16,250.82a1.77,1.77,0,0,1,.44-1.22c1.39-.77,1.52.33,1.79,1.21-.39,1-.79,2.06-2.23,1.37A2,2,0,0,1,40.16,250.82Z" transform="translate(-14.55 -23.11)"/><path class="cls-90" d="M41.19,236a2,2,0,0,1,1.32.41,7,7,0,0,1-.5,1.63c-.43.69-1,.95-1.53,0C40.19,237.18,40,236.34,41.19,236Z" transform="translate(-14.55 -23.11)"/><path class="cls-90" d="M37.93,252.53l1.26.07a1.29,1.29,0,0,1,.4,1.28c-.73,1.57-1,1.69-2.23.92C37.16,254,36.92,253.08,37.93,252.53Z" transform="translate(-14.55 -23.11)"/><path class="cls-90" d="M38,251.8a1.13,1.13,0,0,1,0-.32c.12-.7-.44-1.71.77-1.95.41-.08,1.08,0,1,.47-.13.85,0,2.07-1.42,2.08A.4.4,0,0,1,38,251.8Z" transform="translate(-14.55 -23.11)"/><path class="cls-90" d="M36,252.46a1.76,1.76,0,0,1,0-2.21.82.82,0,0,1,1.37-.09,5.28,5.28,0,0,1,0,1.43C37.37,252.56,36.89,252.91,36,252.46Z" transform="translate(-14.55 -23.11)"/><path class="cls-92" d="M40.54,245.92c-.59-.13-1.65.87-1.66-.75,0-.88.41-1.44,1.11-1.42s.84.77.6,1.44A.59.59,0,0,1,40.54,245.92Z" transform="translate(-14.55 -23.11)"/><path class="cls-93" d="M36,252.46c1.8.06,1.16-1.4,1.42-2.3.51.44-.1,1.27.59,1.64l.33.28-.37.45c-.54.67-.27,1.47-.36,2.21-.78,0-.49-.92-1-1.1-.29-.12-.65,0-.91-.24l-.31-.62C35.57,252.75,35.83,252.74,36,252.46Z" transform="translate(-14.55 -23.11)"/><path class="cls-94" d="M42.12,250.8c0-1-.56-1.37-1.52-1.2l-.48-.48c.14-.85.28-1.7.43-2.56h0a.45.45,0,0,1,.68,0v0c.24.86-.19,1.95.85,2.54.36.51.83,1,.76,1.68A.52.52,0,0,1,42.12,250.8Z" transform="translate(-14.55 -23.11)"/><path class="cls-95" d="M41.21,246.57h-.68c0-.21,0-.43,0-.65s0-.48.05-.73l1.26-.34C42.87,245.88,41.73,246.11,41.21,246.57Z" transform="translate(-14.55 -23.11)"/><path class="cls-96" d="M41.19,236c-.86.46-.64,1.3-.71,2a1.09,1.09,0,0,1-.61-1,4.09,4.09,0,0,0,.32-2.18l.15-.15c.53.18.29,1,.87,1.09C41.2,235.86,41.2,235.93,41.19,236Z" transform="translate(-14.55 -23.11)"/><path class="cls-97" d="M39.29,253.76c0-.39-.07-.78-.1-1.16.32-.6.65-1.19,1-1.78,0,.41.05.82.07,1.24a.89.89,0,0,1,.24.61,1.11,1.11,0,0,1-.28.6C39.92,253.49,39.73,253.86,39.29,253.76Z" transform="translate(-14.55 -23.11)"/><path class="cls-98" d="M35.93,244.86l-.23-.24c-.13-.23-.25-.47-.38-.71l.29-.54C36.39,243.72,36.69,244.18,35.93,244.86Z" transform="translate(-14.55 -23.11)"/><path class="cls-22" d="M42.86,243.58a2.83,2.83,0,0,1,0-.29c.38-.1.36-.81.95-.62a.42.42,0,0,1,.31.47c0,.66-.6.41-.94.55A.21.21,0,0,1,42.86,243.58Z" transform="translate(-14.55 -23.11)"/><path class="cls-99" d="M33.35,248.55a.89.89,0,0,1,.35-1.34c.56.46.72.89-.07,1.28Z" transform="translate(-14.55 -23.11)"/><path class="cls-100" d="M33.63,248.49a.9.9,0,0,0,.07-1.28l.41,0,.22.25.36.46-.67.63Z" transform="translate(-14.55 -23.11)"/><path class="cls-101" d="M42.86,243.58l.3.11,0,.35-.44.55h-.62Z" transform="translate(-14.55 -23.11)"/><path class="cls-93" d="M35.32,247.22l.65-1C36.52,247.07,35.82,247.08,35.32,247.22Z" transform="translate(-14.55 -23.11)"/><path class="cls-102" d="M38,238a1.1,1.1,0,0,1-.4-.94v0l.67,0c0,.32,0,.64,0,1h0A.6.6,0,0,0,38,238Z" transform="translate(-14.55 -23.11)"/><path class="cls-103" d="M44.47,246.5c.18.18.42.36.14.62a.48.48,0,0,1-.42.07c-.38-.16,0-.42,0-.64Z" transform="translate(-14.55 -23.11)"/><path class="cls-104" d="M29.39,231.06l.09-.52c1.35,0,1.86,1.11,2.55,2a1.77,1.77,0,0,1,0,.23c-.14.43-.5.44-.86.43C28.91,233.88,29.55,232.13,29.39,231.06Z" transform="translate(-14.55 -23.11)"/><path class="cls-53" d="M33.37,237.64a1.15,1.15,0,0,1-1,1.23c-.78.07-.89-.67-.89-1.28a1.24,1.24,0,0,1,1.14-1.37C33.38,236.17,33.36,236.85,33.37,237.64Z" transform="translate(-14.55 -23.11)"/><path class="cls-22" d="M32.37,234.79c0-.44,0-.87,0-1.31.57-.31,1.14-1.15,1.79-.37A1.46,1.46,0,0,1,33.9,235C33.26,235.74,32.79,235.46,32.37,234.79Z" transform="translate(-14.55 -23.11)"/><path class="cls-105" d="M35.32,232.81a1.1,1.1,0,0,1-1-.64,1.56,1.56,0,0,1,.39-2.23.77.77,0,0,1,1.29.29c.67,1.09-.2,1.79-.65,2.6Z" transform="translate(-14.55 -23.11)"/><path class="cls-27" d="M36.63,233.82a4.87,4.87,0,0,1-.22-1.4c.06-.51.24-1.08.9-1.19.31,0,.65-.11.89.19.39.51.16,1.05,0,1.54a1.33,1.33,0,0,1-1.56.84Z" transform="translate(-14.55 -23.11)"/><path class="cls-106" d="M29.81,236.08c-.07-.81-.16-1.63.69-2.11.59-.34,1,0,1.29.49C31.55,236.33,31.24,236.58,29.81,236.08Z" transform="translate(-14.55 -23.11)"/><path class="cls-107" d="M36.28,228.89a1.57,1.57,0,0,1,2-.65c0,.22,0,.44,0,.65,0,.88-.25,1.85-1.19,1.82S36.33,229.62,36.28,228.89Z" transform="translate(-14.55 -23.11)"/><path class="cls-106" d="M32.06,232.48l-.35-1.95c.58-.41,1.14-.88,1.93-.56a1.25,1.25,0,0,1,0,1.81C33.19,232.19,32.77,232.65,32.06,232.48Z" transform="translate(-14.55 -23.11)"/><path class="cls-108" d="M31.06,244.27c.22-.92.46-1.83,1.64-2l.23.09c.63.63.41,1.38.31,2.12a1.37,1.37,0,0,1-.47.57C31.89,245.48,31.12,245.61,31.06,244.27Z" transform="translate(-14.55 -23.11)"/><path class="cls-31" d="M34,227.59c0-.11,0-.22.08-.32,1-.46,1.93-.73,1.92.92-.31.16-.29.45-.3.73-.4.94-.9,1.31-1.66.31Z" transform="translate(-14.55 -23.11)"/><path class="cls-108" d="M33.67,238.67c.43-.18.9-.52,1.29,0a1.47,1.47,0,0,1,.11,1.52,1.26,1.26,0,0,1-1.68.77C33.4,240.19,33.16,239.38,33.67,238.67Z" transform="translate(-14.55 -23.11)"/><path class="cls-35" d="M37.61,237.07c-.57,0-1.26.2-1.54-.56a1.45,1.45,0,0,1,.45-1.63c.26-.24.62-.51,1-.22.56.39.38,1,.3,1.49a8.1,8.1,0,0,1-.24.94Z" transform="translate(-14.55 -23.11)"/><path class="cls-42" d="M35.61,237.07c-.47.33-.89.79-1.56.64a1.08,1.08,0,0,0-.07-.31,1.65,1.65,0,0,1,.33-2.07.75.75,0,0,1,.9-.16C36,235.63,35.49,236.43,35.61,237.07Z" transform="translate(-14.55 -23.11)"/><path class="cls-24" d="M30.14,239.7l-.78.3c.23-.94-.29-1.91.09-2.84.55,0,1.26-.39,1.52.33A1.93,1.93,0,0,1,30.14,239.7Z" transform="translate(-14.55 -23.11)"/><path class="cls-24" d="M32.72,240.41c0,.69-.17,1.43-1,1.42-.44,0-.93-.63-.91-1.16s.31-1.28,1.17-1.28S32.7,239.92,32.72,240.41Z" transform="translate(-14.55 -23.11)"/><path class="cls-109" d="M34,229.23c.68.57,1.19.21,1.66-.31a2.08,2.08,0,0,1,.31,1.31c-1.93-.54-1.61.87-1.68,1.94a.66.66,0,0,1-.64-.39V230C33.68,229.69,33.7,229.4,34,229.23Z" transform="translate(-14.55 -23.11)"/><path class="cls-110" d="M35.31,232.83c.81-.17.72.87,1.32,1l0,0c-.18.92-1,1.26-1.56.86-.86-.57-.1-1.26.27-1.85Z" transform="translate(-14.55 -23.11)"/><path class="cls-27" d="M30.09,244.6l.56-.29c.54.58,1.32,1.12.42,2a5.15,5.15,0,0,1-1.38-.38A1.2,1.2,0,0,1,30.09,244.6Z" transform="translate(-14.55 -23.11)"/><path class="cls-111" d="M31,246.2c.56-.75-.12-1.28-.34-1.89l.41,0c.36.78.87,1.08,1.65.54a.61.61,0,0,1,.37.72l-.1.1a6,6,0,0,1-1.59.73A.5.5,0,0,1,31,246.2Z" transform="translate(-14.55 -23.11)"/><path class="cls-112" d="M30.09,244.6l-.31,1.25c.16.14.16.28,0,.41a.7.7,0,0,1-.66.32,4.32,4.32,0,0,0,.31-2.3h.34Z" transform="translate(-14.55 -23.11)"/><path class="cls-113" d="M31.18,233.17a1.16,1.16,0,0,1,.86-.43c.29.17.27.48.34.74C31.89,233.7,31.45,233.76,31.18,233.17Z" transform="translate(-14.55 -23.11)"/><path class="cls-114" d="M33.35,241c.11.33.22.66.32,1h0c-.26.34-.51.71-1,.33h0A1.45,1.45,0,0,1,33.35,241Z" transform="translate(-14.55 -23.11)"/><path class="cls-115" d="M40.19,234.84l-1.61-.06,0,0c-.19-.4.09-.54.38-.67h.22l1,.23.06.1c.1.08.13.15.09.22s-.08.1-.11.1Z" transform="translate(-14.55 -23.11)"/><path class="cls-116" d="M39,234.13l-.38.67c-.38-.26-1-.44-.44-1S38.62,234.18,39,234.13Z" transform="translate(-14.55 -23.11)"/><path class="cls-19" d="M36,265.87c-.46-.18-.25-1.05-1-1a2.71,2.71,0,0,1,0-.29,2.58,2.58,0,0,1,.92-1.95l.09-.51a3.17,3.17,0,0,1,1.54-.62.51.51,0,0,1,.23.34,1.86,1.86,0,0,1-.18.65c.31-.12.18-.91.67-1.23a1.85,1.85,0,0,1,.37-.25c.89-.18,1.1-1.09,1.71-1.58a.81.81,0,0,1,.86.19h0c.17.86-.34,1.74,0,2.6a2.57,2.57,0,0,1,0,.68c0,.63-.92,1.57,0,1.78s.52-1.07.77-1.67a5.07,5.07,0,0,1,.4-1,1.18,1.18,0,0,1,.32-.31c.28-.13.55-.27.85-.07v.29a4.44,4.44,0,0,1-.63,2.63l0,0c-.21.38-.1.86-.4,1.2a1.14,1.14,0,0,1-.3.32,1.61,1.61,0,0,1-1.25.29,4.53,4.53,0,0,1-1.15-.61c-.4-.36-1-.23-1.41-.52l-.62-.35c-.44-.19-.16-1.1-.86-1-.51.11-.44.67-.51,1.08a1.37,1.37,0,0,1-.37.86Z" transform="translate(-14.55 -23.11)"/><path class="cls-29" d="M42.84,270.8a.64.64,0,0,1-.3.62c-.61.17-1.39.87-1.63-.33s.4-1.94,1.67-2l.21.14A1.14,1.14,0,0,1,42.84,270.8Z" transform="translate(-14.55 -23.11)"/><path class="cls-42" d="M36,265.87c0-.37,0-.74,0-1.12,0-.8.12-1.59,1.18-1.46s.77.92.59,1.6C37.45,265.79,36.76,265.93,36,265.87Z" transform="translate(-14.55 -23.11)"/><path class="cls-38" d="M40.91,266.29l1.26-.41c1.13.86.89,1.71,0,2.56-.43.21-.85.48-1.29,0C39.9,267.73,40,267,40.91,266.29Z" transform="translate(-14.55 -23.11)"/><path class="cls-24" d="M43.13,272c.83-.08,1.07.61,1.45,1.11l-1.1,1.59c-1.53-.24-1.13-1.31-1-2.27Z" transform="translate(-14.55 -23.11)"/><path class="cls-33" d="M37.6,269.77c0-.75.21-1.3,1.08-1.26.49,0,.92.32.81.8-.15.69-.24,1.64-1.18,1.69C37.62,271,37.62,270.32,37.6,269.77Z" transform="translate(-14.55 -23.11)"/><path class="cls-38" d="M38.33,265.24c.58-.11,1.19-.41,1.63.3a1.69,1.69,0,0,1-.48,2.2l-.23.08C37.49,267.48,38.06,266.3,38.33,265.24Z" transform="translate(-14.55 -23.11)"/><path class="cls-45" d="M40.55,268.48a1.05,1.05,0,0,1,.07,1.2c-.25.35,0,1.21-.71,1s0-.72,0-1.08a2.86,2.86,0,0,0-.66-1.78h0C40.49,266.38,40.32,267.84,40.55,268.48Z" transform="translate(-14.55 -23.11)"/><path class="cls-117" d="M40.55,268.48c-.28-.53-.47-1.26-1.32-.65a4.25,4.25,0,0,0,.72-2.29c.34.23.8.29,1,.75a2.39,2.39,0,0,0,0,2.19Z" transform="translate(-14.55 -23.11)"/><path class="cls-118" d="M42.17,268.44a2.55,2.55,0,0,0,0-2.56h0c.26-.25.51-.52.93-.37l.08.06c.5.55.35,1.2.31,1.84a2.59,2.59,0,0,1-.14.45c-.25.38-.45.8-.93,1Z" transform="translate(-14.55 -23.11)"/><path class="cls-119" d="M42.2,272.41c-.32.82-.73,1.37-1.65.65A1.13,1.13,0,0,1,42.2,272.41Z" transform="translate(-14.55 -23.11)"/><path class="cls-120" d="M42.43,268.82a1.08,1.08,0,0,1,.69-.95c.58.21.45.59.23,1s-.41.62-.82.24l0,0A.35.35,0,0,0,42.43,268.82Z" transform="translate(-14.55 -23.11)"/><path class="cls-14" d="M40.23,252.84v-.78c1.19.41,1.46-.54,1.89-1.26h.72a10.91,10.91,0,0,1-.32,2.61c-.36.25-.34.47,0,.67.24.82.09,1.86,1.22,2.18l-.62.71a1.88,1.88,0,0,1-.52,1c-.31.34-.6.72-1.15.42-.05-.1-.11-.22-.07-.31.51-1.28,0-1.9-1.29-2a.73.73,0,0,1,0-.66,2.67,2.67,0,0,1,.42-.47C41.66,253.8,41.65,253.67,40.23,252.84Z" transform="translate(-14.55 -23.11)"/><path class="cls-121" d="M45.09,250.88a1.23,1.23,0,0,1,1.68.92c-.1.18-.19.37-.28.56-.22.47-.35,1-1,1.08s-.63-.71-1-1-.12-.81.06-1.2A.74.74,0,0,1,45.09,250.88Z" transform="translate(-14.55 -23.11)"/><path class="cls-91" d="M42.52,253.43a2.19,2.19,0,0,1,.32-2.61h1.32c.46.66.15,1.31,0,2C43.63,253.08,43.2,253.57,42.52,253.43Z" transform="translate(-14.55 -23.11)"/><path class="cls-24" d="M43.78,256.28c-1.57.11-1.81-.32-1.22-2.18.49,0,1-.6,1.45.05S44,255.59,43.78,256.28Z" transform="translate(-14.55 -23.11)"/><path class="cls-22" d="M42.46,257.68a1.09,1.09,0,0,1,.7-.69c1.33,0,1.47.62.94,1.66-.57,0-.74,1.82-1.65.37A1.5,1.5,0,0,1,42.46,257.68Z" transform="translate(-14.55 -23.11)"/><path class="cls-122" d="M45.11,255.44c0-.7.12-1.27.91-1.32s.76.43.76,1c0,.7-.22,1.39-1,1.48S45.15,255.9,45.11,255.44Z" transform="translate(-14.55 -23.11)"/><path class="cls-123" d="M45.79,257.34c-.51.08-.17.86-.86.91a12.37,12.37,0,0,0-.58-2.08l1.43,1.19Z" transform="translate(-14.55 -23.11)"/><path class="cls-124" d="M44.13,252.78l0-2,0,0a.52.52,0,0,1,.66.34c-.11.43-.23.86-.35,1.3Z" transform="translate(-14.55 -23.11)"/><path class="cls-27" d="M42.07,249.13c-1.41-.19-1.54-.59-.85-2.54C43.06,246.64,43.18,247,42.07,249.13Z" transform="translate(-14.55 -23.11)"/><path class="cls-45" d="M44.76,249.48c-.47.24-.8,1.05-1.48.49a1.15,1.15,0,0,1-.35-1.32c.2-.56.39-1.16,1.17-1.12.94.05.7.75.7,1.31,0,.21,0,.42,0,.64Z" transform="translate(-14.55 -23.11)"/><path class="cls-125" d="M46.76,247.87c0,.37,0,.74.05,1.11,0,.53.08,1.14-.52,1.38s-.75-.55-1.11-.86C45.35,248.61,45.49,247.69,46.76,247.87Z" transform="translate(-14.55 -23.11)"/><path class="cls-126" d="M44.85,251.12l-.66-.34.61-.92c.47.24.29.66.29,1Z" transform="translate(-14.55 -23.11)"/><path class="cls-127" d="M31.34,246.23c.37-.69,1-.67,1.64-.6.29,1.79,0,2.31-1.6,2.56v0C31,247.56,30.55,246.91,31.34,246.23Z" transform="translate(-14.55 -23.11)"/><path class="cls-126" d="M33.08,245.53c-.12-.24-.24-.48-.37-.72a.3.3,0,0,1,.15-.2c.29-.09.42-.55.83-.34h0C33.76,244.82,34.26,245.57,33.08,245.53Z" transform="translate(-14.55 -23.11)"/><path class="cls-24" d="M43.49,276c.34.25.31.62.31,1-.41.52-.4,1.39-1.24,1.54a.55.55,0,0,1-.61-.42c-.18-.79-.36-1.6.51-2.15C42.83,275.49,43.18,275.46,43.49,276Z" transform="translate(-14.55 -23.11)"/><path class="cls-128" d="M43.49,274.69l.31.64a1.43,1.43,0,0,1-1.6,0C42.24,274.34,43.36,275.51,43.49,274.69Z" transform="translate(-14.55 -23.11)"/><path class="cls-129" d="M42.2,275.33h1.6c-.11.23-.21.45-.31.68a1.36,1.36,0,0,0-1-.06Z" transform="translate(-14.55 -23.11)"/><path class="cls-123" d="M42.86,264.54c0-.93-.24-1.92.63-2.63,1.24-.08,1.3.76,1.27,1.66C44.31,264.25,43.82,264.85,42.86,264.54Z" transform="translate(-14.55 -23.11)"/><path class="cls-35" d="M40.88,262.26a2.54,2.54,0,0,1,.32-2.61c.45.05,1-.16,1.32.32a1.39,1.39,0,0,1,.17,1.59C42.18,262,41.83,262.93,40.88,262.26Z" transform="translate(-14.55 -23.11)"/><path class="cls-130" d="M42.46,257.68c0,.45,0,.89,0,1.34l-.29,0c-.28.21-.82-.21-.94.38a2.44,2.44,0,0,0,0,.27l-1,0A.65.65,0,0,1,40,259a1.45,1.45,0,0,1,.52-.81.73.73,0,0,1,.9.12C42,258.42,42.16,258,42.46,257.68Z" transform="translate(-14.55 -23.11)"/><path class="cls-131" d="M42.51,261.58c0-.54,0-1.07,0-1.61.75-.06,1.07.27.95,1a3.16,3.16,0,0,0-.6.93l-.37,0a.22.22,0,0,1-.09-.25C42.44,261.62,42.47,261.58,42.51,261.58Z" transform="translate(-14.55 -23.11)"/><path class="cls-119" d="M41.22,259.38c-.23-.14-.25-.3,0-.48.37-.35.67-.06,1,.1C42,259.43,41.54,259.27,41.22,259.38Z" transform="translate(-14.55 -23.11)"/><path class="cls-123" d="M42.87,261.92c0-.44-.11-.95.6-.93,0,.21,0,.42,0,.63Z" transform="translate(-14.55 -23.11)"/><path class="cls-127" d="M35.92,262.66a3.84,3.84,0,0,1-.92,1.95c-.74.25-1-.18-1.07-.79a1.46,1.46,0,0,1,.5-1.58C35.12,261.69,35.49,262.29,35.92,262.66Z" transform="translate(-14.55 -23.11)"/><path class="cls-22" d="M37.59,261.6c-.49.29-.86.93-1.58.55a2.28,2.28,0,0,1-.15-1.86,1.35,1.35,0,0,1,1.71-.56A1.27,1.27,0,0,1,37.59,261.6Z" transform="translate(-14.55 -23.11)"/><path class="cls-111" d="M42.53,269.1c.93-.06.9-.58.59-1.23l.07-.07a2,2,0,0,1,1.6-.41c.3.18.51.41.41.79-1.8.07-2,1.17-1.6,2.57l-.76.05A3.33,3.33,0,0,0,42.53,269.1Z" transform="translate(-14.55 -23.11)"/><path class="cls-132" d="M45.2,268.18l-.4-.69a.39.39,0,0,1,.31-.54l.42.08a.23.23,0,0,0,.17.11c.13.48.33,1-.3,1.26A.43.43,0,0,0,45.2,268.18Z" transform="translate(-14.55 -23.11)"/><path class="cls-15" d="M31.34,246.23c-.37.67.1,1.32.05,2l-1,.65c0-.91,1.23-2.14-.64-2.6l0-.41,1.21.35Z" transform="translate(-14.55 -23.11)"/><path class="cls-128" d="M31.71,230.53c-1.14,0-.9-.48-.32-1C31.86,229.73,31.68,230.16,31.71,230.53Z" transform="translate(-14.55 -23.11)"/><path class="cls-133" d="M32,254.65l.61-.6.75,0a4.53,4.53,0,0,1-.66,2.61l-.06.08a.21.21,0,0,1-.27-.14.62.62,0,0,0-.32-.59l-.1-.6C32.05,255.19,31.78,254.9,32,254.65Z" transform="translate(-14.55 -23.11)"/><path class="cls-134" d="M32,254.65c.06.27.41.56-.05.8-.44-.45-1-.37-1.56-.38.11-.34.22-.69.32-1C31.14,254.25,31.38,254.83,32,254.65Z" transform="translate(-14.55 -23.11)"/><path class="cls-135" d="M45.11,267l-.31.54a2.51,2.51,0,0,1-1.61.31v-2.24C44.85,264.61,45,265.78,45.11,267Z" transform="translate(-14.55 -23.11)"/><path class="cls-132" d="M43.11,265.5l-.93.37a1.46,1.46,0,0,1,.66-1.31Z" transform="translate(-14.55 -23.11)"/><path class="cls-22" d="M45.45,264.23c-.1.32-.23.61-.62.61-.18,0-.27-.12-.21-.31.15-.45.43-.55.83-.3Z" transform="translate(-14.55 -23.11)"/><path class="cls-136" d="M40.22,234.79a.7.7,0,0,0,0-.32c.85.05.65.87,1,1.31C40.42,235.91,40.7,235,40.22,234.79Z" transform="translate(-14.55 -23.11)"/><path class="cls-76" d="M32.37,256.64a.87.87,0,0,0,.27.14l.39.91-.61.54C31.67,257.72,31.74,257.19,32.37,256.64Z" transform="translate(-14.55 -23.11)"/><path class="cls-42" d="M37,258.81c-1.47.47-1.62.31-1.65-1.78h0c.53-.23.95-.78,1.63-.63,1,.65.78,1.44.26,2.26Z" transform="translate(-14.55 -23.11)"/><path class="cls-137" d="M35.63,253.4l.85-.27c1.1.67.68,1.56.36,2.44l-.22.15c-.48.16-1,.48-1.35-.19A1.62,1.62,0,0,1,35.63,253.4Z" transform="translate(-14.55 -23.11)"/><path class="cls-33" d="M32.7,256.7a3.15,3.15,0,0,1,.66-2.61c.82,0,1.4.25,1.25,1.19A1.5,1.5,0,0,1,32.7,256.7Z" transform="translate(-14.55 -23.11)"/><path class="cls-41" d="M37.59,261.6c0-.62,0-1.25,0-1.87l0-.38a.57.57,0,0,1,.69-.44.78.78,0,0,1,.43.49c-.07.63.29,1.29-.14,1.89l0,0c-.33,0-.52.51-.93.29Z" transform="translate(-14.55 -23.11)"/><path class="cls-138" d="M37,258.82a2.51,2.51,0,0,0,0-2.41v-.27c.25-.32.51-.13.78,0a1.14,1.14,0,0,1,.32.3,3.76,3.76,0,0,1,.14,1.73,1.2,1.2,0,0,1-.2.39A.9.9,0,0,1,37,258.82Z" transform="translate(-14.55 -23.11)"/><path class="cls-38" d="M37,258.82l.94-.45c.31.09.48.26.34.6l-.64.38a.67.67,0,0,1-.62-.54Z" transform="translate(-14.55 -23.11)"/><path class="cls-128" d="M35.33,257c-.27-.13-.86.28-.75-.43,0-.17.27-.45.38-.44.59.07.28.56.35.88Z" transform="translate(-14.55 -23.11)"/><path class="cls-139" d="M37.56,256.36l-.62-.22-.32-.42h0c.29-.43.68-.78,1.17-.4S37.82,256.06,37.56,256.36Z" transform="translate(-14.55 -23.11)"/><path class="cls-22" d="M35.66,241.37c-.27-.06-.73,0-.46-.5.08-.16.15-.46.42-.32.45.21.14.52.06.8Z" transform="translate(-14.55 -23.11)"/><path class="cls-140" d="M33.69,244.27l-.82.34a2.59,2.59,0,0,0-.19-2.3l1-.33Z" transform="translate(-14.55 -23.11)"/><path class="cls-87" d="M37.56,256.36c0-.3.36-.63.06-.89s-.65.23-1,.26c.24-.88.73-1.77-.13-2.6,1.24-.06.48,1.24,1.09,1.61,1.26.87,1.38-.24,1.72-1l.69-.63a1.85,1.85,0,0,1,.17,1.74c-.2.48-.66.7-1,1a2.45,2.45,0,0,1-1.27.51Z" transform="translate(-14.55 -23.11)"/><path class="cls-24" d="M39.87,255.07c0-.65.07-1.3.11-1.94l.25-.29c.58,0,1.44-.49,1.57.52a1.75,1.75,0,0,1-1.58,2.07C39.93,255.48,39.81,255.36,39.87,255.07Z" transform="translate(-14.55 -23.11)"/><path class="cls-90" d="M38.27,263.36c-.07-1,.28-1.48,1-1.54.55-.05,1,.27.87.87-.13.79-.32,1.72-1.31,1.74C38.18,264.44,38.3,263.66,38.27,263.36Z" transform="translate(-14.55 -23.11)"/><path class="cls-24" d="M42.11,263l0,.16c.13.87.21,1.73-.68,2.29a.61.61,0,0,1-.86-.13c-.67-.87-.13-1.61.28-2.36A.8.8,0,0,1,42.11,263Z" transform="translate(-14.55 -23.11)"/><path class="cls-50" d="M38.58,261.29c0-.66-.5-1.31,0-2,.37-1.14.92-1.35,1.71-.32,0,.23,0,.46,0,.69A1.49,1.49,0,0,1,38.58,261.29Z" transform="translate(-14.55 -23.11)"/><path class="cls-141" d="M42.11,263l-1.23,0v-.67c.7.16,1.14-.32,1.63-.68V262C42.51,262.34,42.54,262.75,42.11,263Z" transform="translate(-14.55 -23.11)"/><path class="cls-76" d="M37.6,261.61c.32-.05.44-.77.93-.29-.5.7-.53,2-2,1.5C37,262.46,37.7,262.39,37.6,261.61Z" transform="translate(-14.55 -23.11)"/><path class="cls-42" d="M41.45,258.33l-.91,0c-.52.06-.57-.35-.69-.7a1.68,1.68,0,0,1,.38-1.56c.57,0,1.15-.79,1.69.06S41.8,257.65,41.45,258.33Z" transform="translate(-14.55 -23.11)"/><path class="cls-142" d="M40.23,256.09l-.07,1.6a.53.53,0,0,1-.67,0,7.22,7.22,0,0,1-.58-2,1,1,0,0,1,1-.62l.35.36Z" transform="translate(-14.55 -23.11)"/><path class="cls-17" d="M39.5,257.67l.66,0c.13.22.26.44.38.66a.58.58,0,0,1-.3.63c-.71-.6-1.25-.34-1.71.32l-.29-.33c-.11-.2-.22-.4-.34-.6l.09-.09A2,2,0,0,1,39.5,257.67Z" transform="translate(-14.55 -23.11)"/><path class="cls-90" d="M39.5,257.67c-.45.34-.84.82-1.51.61-.06-.64-.11-1.27-.16-1.91a1.16,1.16,0,0,1,1.08-.68C40.22,256,39.39,257,39.5,257.67Z" transform="translate(-14.55 -23.11)"/><path class="cls-2" d="M113.65,320.82h29.41q11.07,0,16.92,4.73t5.84,16.92V358a55.73,55.73,0,0,1-1.29,13.17,17.06,17.06,0,0,1-4.25,8.12,16,16,0,0,1-7.69,4.12A49.2,49.2,0,0,1,141,384.55h-6.89V409.9H113.65Zm26.46,47.73a4.15,4.15,0,0,0,3.38-1.41q1.17-1.41,1.17-5.11v-21.4a3.74,3.74,0,0,0-1-3,6.12,6.12,0,0,0-3.69-.8h-5.9v31.74Z" transform="translate(-14.55 -23.11)"/><path class="cls-2" d="M173.94,338.16a20.63,20.63,0,0,1,1.72-9,13.37,13.37,0,0,1,5.11-5.66,22.75,22.75,0,0,1,8.31-2.89,71.56,71.56,0,0,1,11.32-.8,74.64,74.64,0,0,1,10.95.74,21.14,21.14,0,0,1,8.36,2.95,14.2,14.2,0,0,1,5.29,6.34,27.34,27.34,0,0,1,1.85,11v8.74H207.16v-9.35c0-2.05-.45-3.43-1.35-4.13s-2.67-1-5.29-1c-2,0-3.37.37-4.18,1.11s-1.24,2.21-1.24,4.43V392.3a2.77,2.77,0,0,0,1.24,2.52,8.26,8.26,0,0,0,4.3.8c2.54,0,4.27-.26,5.17-.8a2.42,2.42,0,0,0,1.35-2.15v-14h-6.27V361.91h26v28.67A33.11,33.11,0,0,1,225.5,401a12.15,12.15,0,0,1-4.5,6.15,18.66,18.66,0,0,1-8.18,2.95,86.55,86.55,0,0,1-12.42.74,71.56,71.56,0,0,1-11.32-.8,22.39,22.39,0,0,1-8.31-2.89,13.31,13.31,0,0,1-5.11-5.66,20.6,20.6,0,0,1-1.72-9Z" transform="translate(-14.55 -23.11)"/><path class="cls-2" d="M239.15,320.82h25.22a78.14,78.14,0,0,1,13.66,1,20.37,20.37,0,0,1,8.62,3.38,12.64,12.64,0,0,1,4.49,6.53,35.32,35.32,0,0,1,1.29,10.39v10.71a29.11,29.11,0,0,1-1,8.3,13.43,13.43,0,0,1-2.76,5.23,11.72,11.72,0,0,1-4.37,3,25.37,25.37,0,0,1-5.79,1.54v.25q3.45.74,6,1.54a11.43,11.43,0,0,1,4.31,2.33,9.8,9.8,0,0,1,2.64,4.07,19.35,19.35,0,0,1,.93,6.58V409.9H272V384.43a4.46,4.46,0,0,0-1.9-4.06c-1.28-.82-3.63-1.23-7.08-1.23h-3.44V409.9H239.15Zm20.43,43.06h3.93q5.42,0,7-1.72t1.53-6V342.72q0-3.45-1.47-5.05c-1-1.06-2.59-1.6-4.8-1.6h-6.15Z" transform="translate(-14.55 -23.11)"/><path class="cls-2" d="M114.4,414.5h3.39a1.74,1.74,0,0,1,.84.18,1.25,1.25,0,0,1,.52.5,2.47,2.47,0,0,1,.25.78,7.75,7.75,0,0,1,.07,1,4.56,4.56,0,0,1-.15,1.29,1.69,1.69,0,0,1-.43.75,1.38,1.38,0,0,1-.67.34,3.87,3.87,0,0,1-.86.08h-2.18v3.15h-.78Zm.78,4.15h2.27a2,2,0,0,0,.58-.07.75.75,0,0,0,.39-.26,1.21,1.21,0,0,0,.2-.51,4.84,4.84,0,0,0,.06-.84,5.54,5.54,0,0,0-.05-.9,1.25,1.25,0,0,0-.18-.5.56.56,0,0,0-.35-.23,2,2,0,0,0-.53-.06h-2.39Z" transform="translate(-14.55 -23.11)"/><path class="cls-2" d="M120.39,414.5h3.31a3.29,3.29,0,0,1,.9.1,1.39,1.39,0,0,1,.61.37,1.58,1.58,0,0,1,.34.7,5,5,0,0,1,.1,1.12,7.58,7.58,0,0,1-.05.9,2.29,2.29,0,0,1-.18.62,1.07,1.07,0,0,1-.32.4,1.2,1.2,0,0,1-.47.22v0a1.08,1.08,0,0,1,.68.5,1.77,1.77,0,0,1,.21.92v2.21h-.78v-1.84a3.06,3.06,0,0,0-.07-.67.8.8,0,0,0-.24-.43,1,1,0,0,0-.47-.24,3.82,3.82,0,0,0-.75-.07h-2v3.25h-.79Zm.79,4.05h2.53a1,1,0,0,0,.89-.39,2.26,2.26,0,0,0,.27-1.24,6.86,6.86,0,0,0-.05-.9.89.89,0,0,0-.2-.49.65.65,0,0,0-.43-.2,4.72,4.72,0,0,0-.73-.05h-2.28Z" transform="translate(-14.55 -23.11)"/><path class="cls-2" d="M126.9,417.18a5.53,5.53,0,0,1,.15-1.43,1.55,1.55,0,0,1,.48-.84,1.79,1.79,0,0,1,.88-.4,9,9,0,0,1,2.68,0,1.79,1.79,0,0,1,.88.4,1.55,1.55,0,0,1,.48.84,5.53,5.53,0,0,1,.15,1.43v2.72a5.57,5.57,0,0,1-.15,1.44,1.59,1.59,0,0,1-.48.84,1.79,1.79,0,0,1-.88.39,9,9,0,0,1-2.68,0,1.79,1.79,0,0,1-.88-.39,1.59,1.59,0,0,1-.48-.84,5.57,5.57,0,0,1-.15-1.44Zm4.92,0a7.42,7.42,0,0,0-.07-1.07,1.12,1.12,0,0,0-.28-.61,1.09,1.09,0,0,0-.63-.28,8.6,8.6,0,0,0-2.19,0,1.09,1.09,0,0,0-.62.28,1.12,1.12,0,0,0-.28.61,7.42,7.42,0,0,0-.07,1.07v2.64a7.42,7.42,0,0,0,.07,1.07,1.19,1.19,0,0,0,.28.62,1.08,1.08,0,0,0,.62.27,8.6,8.6,0,0,0,2.19,0,1.08,1.08,0,0,0,.63-.27,1.19,1.19,0,0,0,.28-.62,7.42,7.42,0,0,0,.07-1.07Z" transform="translate(-14.55 -23.11)"/><path class="cls-2" d="M139.1,420.51a4,4,0,0,1-.12,1.07,1.37,1.37,0,0,1-.4.67,1.65,1.65,0,0,1-.77.33,6.76,6.76,0,0,1-1.22.09,7.44,7.44,0,0,1-1.35-.1,1.79,1.79,0,0,1-.88-.39,1.73,1.73,0,0,1-.48-.84,5.63,5.63,0,0,1-.14-1.44v-2.72a5.59,5.59,0,0,1,.14-1.43,1.68,1.68,0,0,1,.48-.84,1.79,1.79,0,0,1,.88-.4,7.44,7.44,0,0,1,1.35-.1,7.61,7.61,0,0,1,1.15.07,1.76,1.76,0,0,1,.78.28,1.31,1.31,0,0,1,.44.64,3.73,3.73,0,0,1,.14,1.12v.58h-.72v-.52a2.9,2.9,0,0,0-.08-.75.78.78,0,0,0-.29-.42,1.32,1.32,0,0,0-.56-.18,6.88,6.88,0,0,0-.86,0,6.52,6.52,0,0,0-1.1.07,1.09,1.09,0,0,0-.62.28,1.06,1.06,0,0,0-.29.61,7.64,7.64,0,0,0-.06,1.07v2.64a7.64,7.64,0,0,0,.06,1.07,1.13,1.13,0,0,0,.29.62,1.08,1.08,0,0,0,.62.27,6.52,6.52,0,0,0,1.1.07,4.94,4.94,0,0,0,1-.07,1.09,1.09,0,0,0,.54-.25.75.75,0,0,0,.23-.45,4.44,4.44,0,0,0,0-.69v-.54h.72Z" transform="translate(-14.55 -23.11)"/><path class="cls-2" d="M140.26,414.5H141v6.25a1.38,1.38,0,0,0,.09.54.79.79,0,0,0,.29.36,1.72,1.72,0,0,0,.57.19,7.16,7.16,0,0,0,.89.05,7.39,7.39,0,0,0,.91-.05,1.74,1.74,0,0,0,.56-.19.72.72,0,0,0,.31-.36,1.38,1.38,0,0,0,.09-.54V414.5h.78v6a3.18,3.18,0,0,1-.15,1.06,1.32,1.32,0,0,1-.46.66,1.93,1.93,0,0,1-.82.34,7.08,7.08,0,0,1-1.22.09,6.83,6.83,0,0,1-1.2-.09,2,2,0,0,1-.82-.34,1.39,1.39,0,0,1-.46-.66,3.49,3.49,0,0,1-.14-1.06Z" transform="translate(-14.55 -23.11)"/><path class="cls-2" d="M146.89,414.5h3.31a3.39,3.39,0,0,1,.9.1,1.31,1.31,0,0,1,.6.37,1.48,1.48,0,0,1,.34.7,5,5,0,0,1,.11,1.12,5.8,5.8,0,0,1-.06.9,1.74,1.74,0,0,1-.18.62,1.05,1.05,0,0,1-.31.4,1.18,1.18,0,0,1-.48.22v0a1.11,1.11,0,0,1,.69.5,1.77,1.77,0,0,1,.2.92v2.21h-.78v-1.84a3.13,3.13,0,0,0-.06-.67,1,1,0,0,0-.24-.43,1,1,0,0,0-.47-.24,3.86,3.86,0,0,0-.76-.07h-2v3.25h-.78Zm.78,4.05h2.54a1,1,0,0,0,.88-.39,2.17,2.17,0,0,0,.28-1.24,6.86,6.86,0,0,0-.05-.9,1,1,0,0,0-.2-.49.67.67,0,0,0-.43-.2,4.72,4.72,0,0,0-.73-.05h-2.29Z" transform="translate(-14.55 -23.11)"/><path class="cls-2" d="M157.78,420.88h-3.49l-.52,1.7H153l2.54-8.08h1.09l2.54,8.08h-.82Zm-1.69-5.6H156l-1.44,4.81h3Z" transform="translate(-14.55 -23.11)"/><path class="cls-2" d="M159.92,414.5H163a3.14,3.14,0,0,1,1.39.25,1.63,1.63,0,0,1,.74.73,3.13,3.13,0,0,1,.3,1.16c0,.46.05,1,.05,1.58s0,1.38-.06,1.92a4,4,0,0,1-.31,1.37,1.7,1.7,0,0,1-.78.81,3.34,3.34,0,0,1-1.44.26h-3Zm.78,7.3h2.45a1.75,1.75,0,0,0,.78-.15,1,1,0,0,0,.48-.52,2.93,2.93,0,0,0,.24-1q.06-.63.06-1.59c0-.66,0-1.2-.06-1.63a3.21,3.21,0,0,0-.23-1,1,1,0,0,0-.47-.5,2.27,2.27,0,0,0-.8-.13H160.7Z" transform="translate(-14.55 -23.11)"/><path class="cls-2" d="M166.63,417.18a5.53,5.53,0,0,1,.15-1.43,1.55,1.55,0,0,1,.48-.84,1.75,1.75,0,0,1,.88-.4,7.25,7.25,0,0,1,1.34-.1,7.33,7.33,0,0,1,1.34.1,1.79,1.79,0,0,1,.88.4,1.68,1.68,0,0,1,.48.84,5.53,5.53,0,0,1,.15,1.43v2.72a5.57,5.57,0,0,1-.15,1.44,1.73,1.73,0,0,1-.48.84,1.79,1.79,0,0,1-.88.39,7.33,7.33,0,0,1-1.34.1,7.25,7.25,0,0,1-1.34-.1,1.75,1.75,0,0,1-.88-.39,1.59,1.59,0,0,1-.48-.84,5.57,5.57,0,0,1-.15-1.44Zm4.91,0a7.64,7.64,0,0,0-.06-1.07,1.12,1.12,0,0,0-.28-.61,1.09,1.09,0,0,0-.63-.28,8.6,8.6,0,0,0-2.19,0,1.09,1.09,0,0,0-.62.28,1.05,1.05,0,0,0-.28.61,6.21,6.21,0,0,0-.07,1.07v2.64a6.21,6.21,0,0,0,.07,1.07,1.12,1.12,0,0,0,.28.62,1.08,1.08,0,0,0,.62.27,8.6,8.6,0,0,0,2.19,0,1.08,1.08,0,0,0,.63-.27,1.19,1.19,0,0,0,.28-.62,7.64,7.64,0,0,0,.06-1.07Z" transform="translate(-14.55 -23.11)"/><path class="cls-2" d="M173.58,414.5h3.3a3.42,3.42,0,0,1,.91.1,1.42,1.42,0,0,1,.6.37,1.58,1.58,0,0,1,.34.7,5,5,0,0,1,.11,1.12,5.8,5.8,0,0,1-.06.9,2.29,2.29,0,0,1-.18.62,1.07,1.07,0,0,1-.32.4,1.2,1.2,0,0,1-.47.22v0a1.06,1.06,0,0,1,.68.5,1.77,1.77,0,0,1,.21.92v2.21h-.78v-1.84a2.55,2.55,0,0,0-.07-.67.8.8,0,0,0-.24-.43.91.91,0,0,0-.47-.24,3.67,3.67,0,0,0-.75-.07h-2v3.25h-.78Zm.78,4.05h2.53a1,1,0,0,0,.89-.39,2.26,2.26,0,0,0,.27-1.24,5.46,5.46,0,0,0-.05-.9.89.89,0,0,0-.2-.49.65.65,0,0,0-.43-.2,4.57,4.57,0,0,0-.72-.05h-2.29Z" transform="translate(-14.55 -23.11)"/><path class="cls-2" d="M180.36,414.5h.79v8.08h-.79Z" transform="translate(-14.55 -23.11)"/><path class="cls-2" d="M186.94,420.88h-3.48l-.53,1.7h-.81l2.53-8.08h1.1l2.53,8.08h-.81Zm-1.68-5.6h-.12l-1.44,4.81h3Z" transform="translate(-14.55 -23.11)"/><path class="cls-2" d="M194.74,418.61h2.88v1.81a3.51,3.51,0,0,1-.18,1.26,1.24,1.24,0,0,1-.52.67,1.82,1.82,0,0,1-.85.27,9.76,9.76,0,0,1-1.14.05,7.44,7.44,0,0,1-1.35-.1,1.83,1.83,0,0,1-.88-.39,1.73,1.73,0,0,1-.48-.84,6.12,6.12,0,0,1-.14-1.44v-2.72a6.09,6.09,0,0,1,.14-1.43,1.68,1.68,0,0,1,.48-.84,1.84,1.84,0,0,1,.88-.4,7.44,7.44,0,0,1,1.35-.1c.39,0,.75,0,1.08,0a2.41,2.41,0,0,1,.86.22,1.21,1.21,0,0,1,.55.5,1.77,1.77,0,0,1,.2.9v.82h-.79v-.29a3.6,3.6,0,0,0-.06-.74.73.73,0,0,0-.28-.43,1.2,1.2,0,0,0-.58-.19,8.43,8.43,0,0,0-1-.05,6.57,6.57,0,0,0-1.11.07,1.05,1.05,0,0,0-.61.28,1,1,0,0,0-.28.61,6.21,6.21,0,0,0-.07,1.07v2.64a6.21,6.21,0,0,0,.07,1.07.94.94,0,0,0,.89.89,6.57,6.57,0,0,0,1.11.07c.38,0,.7,0,.95,0a1.12,1.12,0,0,0,.59-.19.85.85,0,0,0,.29-.5,4.92,4.92,0,0,0,.07-1v-.8h-2.09Z" transform="translate(-14.55 -23.11)"/><path class="cls-2" d="M198.81,414.5h4.33v.78h-3.55V418H203v.78h-3.37v3h3.53v.78h-4.31Z" transform="translate(-14.55 -23.11)"/><path class="cls-2" d="M204.39,414.5h3.31a3.29,3.29,0,0,1,.9.1,1.39,1.39,0,0,1,.61.37,1.58,1.58,0,0,1,.34.7,5,5,0,0,1,.1,1.12,7.58,7.58,0,0,1-.05.9,2.29,2.29,0,0,1-.18.62,1.07,1.07,0,0,1-.32.4,1.2,1.2,0,0,1-.47.22v0a1.08,1.08,0,0,1,.68.5,1.77,1.77,0,0,1,.21.92v2.21h-.78v-1.84a3.06,3.06,0,0,0-.07-.67.8.8,0,0,0-.24-.43,1,1,0,0,0-.47-.24,3.82,3.82,0,0,0-.75-.07h-2v3.25h-.79Zm.79,4.05h2.53a1,1,0,0,0,.89-.39,2.26,2.26,0,0,0,.27-1.24,6.86,6.86,0,0,0-.05-.9.89.89,0,0,0-.2-.49.65.65,0,0,0-.43-.2,4.72,4.72,0,0,0-.73-.05h-2.28Z" transform="translate(-14.55 -23.11)"/><path class="cls-2" d="M215.28,420.88H211.8l-.53,1.7h-.81L213,414.5h1.1l2.53,8.08h-.82Zm-1.69-5.6h-.11L212,420.09h3Z" transform="translate(-14.55 -23.11)"/><path class="cls-2" d="M217.42,414.5h.78v7.23h3.41v.85h-4.19Z" transform="translate(-14.55 -23.11)"/><path class="cls-2" d="M225.7,414.5h3.09a3.07,3.07,0,0,1,1.38.25,1.61,1.61,0,0,1,.75.73,3,3,0,0,1,.29,1.16c0,.46.06,1,.06,1.58s0,1.38-.06,1.92a4.2,4.2,0,0,1-.31,1.37,1.7,1.7,0,0,1-.78.81,3.34,3.34,0,0,1-1.44.26h-3Zm.78,7.3h2.44a1.79,1.79,0,0,0,.79-.15,1,1,0,0,0,.48-.52,2.93,2.93,0,0,0,.24-1q.06-.63.06-1.59c0-.66,0-1.2-.06-1.63a3.21,3.21,0,0,0-.23-1,.94.94,0,0,0-.48-.5,2.19,2.19,0,0,0-.8-.13h-2.44Z" transform="translate(-14.55 -23.11)"/><path class="cls-2" d="M236.78,420.88H233.3l-.52,1.7H232l2.54-8.08h1.09l2.53,8.08h-.81Zm-1.68-5.6H235l-1.44,4.81h3Z" transform="translate(-14.55 -23.11)"/><path class="cls-2" d="M242,414.5h3.31a3.29,3.29,0,0,1,.9.1,1.39,1.39,0,0,1,.61.37,1.58,1.58,0,0,1,.34.7,5,5,0,0,1,.1,1.12,7.58,7.58,0,0,1,0,.9,2.29,2.29,0,0,1-.18.62,1.07,1.07,0,0,1-.32.4,1.2,1.2,0,0,1-.47.22v0a1.08,1.08,0,0,1,.68.5,1.77,1.77,0,0,1,.21.92v2.21h-.78v-1.84a3.06,3.06,0,0,0-.07-.67.8.8,0,0,0-.24-.43,1,1,0,0,0-.47-.24,3.82,3.82,0,0,0-.75-.07h-2v3.25H242Zm.79,4.05h2.53a1,1,0,0,0,.89-.39,2.26,2.26,0,0,0,.27-1.24,6.86,6.86,0,0,0,0-.9.89.89,0,0,0-.2-.49.65.65,0,0,0-.43-.2,4.72,4.72,0,0,0-.73-.05h-2.28Z" transform="translate(-14.55 -23.11)"/><path class="cls-2" d="M248.65,414.5H253v.78h-3.55V418h3.37v.78h-3.37v3H253v.78h-4.31Z" transform="translate(-14.55 -23.11)"/><path class="cls-2" d="M254.24,414.5h3.39a1.78,1.78,0,0,1,.85.18,1.29,1.29,0,0,1,.51.5,2.24,2.24,0,0,1,.25.78,7.75,7.75,0,0,1,.07,1,4.56,4.56,0,0,1-.15,1.29,1.69,1.69,0,0,1-.43.75,1.38,1.38,0,0,1-.67.34,3.87,3.87,0,0,1-.86.08H255v3.15h-.78Zm.78,4.15h2.27a2,2,0,0,0,.58-.07.75.75,0,0,0,.39-.26,1.21,1.21,0,0,0,.2-.51,4.71,4.71,0,0,0,.07-.84,5.36,5.36,0,0,0-.06-.9,1.11,1.11,0,0,0-.19-.5.52.52,0,0,0-.33-.23,2.12,2.12,0,0,0-.54-.06H255Z" transform="translate(-14.55 -23.11)"/><path class="cls-2" d="M260.23,414.5H261v6.25a1.4,1.4,0,0,0,.08.54.75.75,0,0,0,.3.36,1.74,1.74,0,0,0,.56.19,8.12,8.12,0,0,0,1.8,0,1.72,1.72,0,0,0,.57-.19.75.75,0,0,0,.3-.36,1.38,1.38,0,0,0,.09-.54V414.5h.78v6a3.2,3.2,0,0,1-.14,1.06,1.39,1.39,0,0,1-.46.66,2,2,0,0,1-.82.34,7.16,7.16,0,0,1-1.22.09,7,7,0,0,1-1.21-.09,1.94,1.94,0,0,1-.81-.34,1.39,1.39,0,0,1-.46-.66,3.18,3.18,0,0,1-.15-1.06Zm3.18-1.92h.87l-1.54,1.55h-.57Z" transform="translate(-14.55 -23.11)"/><path class="cls-2" d="M266.87,414.5h3.18a2.93,2.93,0,0,1,.92.12,1.12,1.12,0,0,1,.55.35,1.2,1.2,0,0,1,.28.6,5.11,5.11,0,0,1,.07.85c0,.25,0,.48,0,.68a2.47,2.47,0,0,1-.11.53,1.18,1.18,0,0,1-.25.4,1.39,1.39,0,0,1-.45.28v0a1.37,1.37,0,0,1,.53.23,1.08,1.08,0,0,1,.3.42,2.5,2.5,0,0,1,.13.62c0,.25,0,.53,0,.86a4.38,4.38,0,0,1-.09,1,1.47,1.47,0,0,1-.32.65,1.35,1.35,0,0,1-.6.4,3.3,3.3,0,0,1-1,.12h-3.18Zm.78,3.51H270a1.37,1.37,0,0,0,.54-.1.76.76,0,0,0,.32-.27,1.16,1.16,0,0,0,.16-.43,4.78,4.78,0,0,0,0-.57c0-.2,0-.38,0-.55a.94.94,0,0,0-.12-.43.68.68,0,0,0-.3-.28,1.31,1.31,0,0,0-.58-.1h-2.42Zm0,3.79h2.23a2.81,2.81,0,0,0,.72-.07.74.74,0,0,0,.41-.25,1,1,0,0,0,.19-.47,6.5,6.5,0,0,0,0-1.44.92.92,0,0,0-.19-.46.74.74,0,0,0-.41-.25,2.81,2.81,0,0,0-.72-.07h-2.23Z" transform="translate(-14.55 -23.11)"/><path class="cls-2" d="M273.27,414.5h.79v7.23h3.4v.85h-4.19Z" transform="translate(-14.55 -23.11)"/><path class="cls-2" d="M278.61,414.5h.78v8.08h-.78Z" transform="translate(-14.55 -23.11)"/><path class="cls-2" d="M286.17,420.51a4,4,0,0,1-.12,1.07,1.3,1.3,0,0,1-.4.67,1.61,1.61,0,0,1-.76.33,6.84,6.84,0,0,1-1.22.09,7.3,7.3,0,0,1-1.35-.1,1.75,1.75,0,0,1-.88-.39,1.59,1.59,0,0,1-.48-.84,5.57,5.57,0,0,1-.15-1.44v-2.72a5.53,5.53,0,0,1,.15-1.43,1.55,1.55,0,0,1,.48-.84,1.75,1.75,0,0,1,.88-.4,7.3,7.3,0,0,1,1.35-.1,7.39,7.39,0,0,1,1.14.07,1.72,1.72,0,0,1,.78.28,1.25,1.25,0,0,1,.44.64,3.73,3.73,0,0,1,.14,1.12v.58h-.71v-.52a2.47,2.47,0,0,0-.09-.75.69.69,0,0,0-.29-.42,1.32,1.32,0,0,0-.55-.18,7,7,0,0,0-.86,0,6.44,6.44,0,0,0-1.1.07,1.09,1.09,0,0,0-.62.28,1,1,0,0,0-.29.61,7.42,7.42,0,0,0-.07,1.07v2.64a7.42,7.42,0,0,0,.07,1.07,1.06,1.06,0,0,0,.29.62,1.08,1.08,0,0,0,.62.27,6.44,6.44,0,0,0,1.1.07,5,5,0,0,0,1-.07,1.05,1.05,0,0,0,.53-.25.82.82,0,0,0,.24-.45,4.44,4.44,0,0,0,0-.69v-.54h.71Z" transform="translate(-14.55 -23.11)"/><path class="cls-2" d="M291.6,420.88h-3.49l-.52,1.7h-.82l2.54-8.08h1.09l2.54,8.08h-.82Zm-1.69-5.6h-.11l-1.44,4.81h3Z" transform="translate(-14.55 -23.11)"/><rect x="106.54" y="179.83" width="61.23" height="9.27" rx="3.82" transform="translate(259.76 345.82) rotate(-180)"/><rect x="223.42" y="156.72" width="61.23" height="9.27" rx="3.82"/><path d="M84.17,257.71l68.65,0s-3.85,9.55-17.35,12.72H100.92S88.68,268.07,84.17,257.71Z" transform="translate(-14.55 -23.11)"/><rect x="102.13" y="170.04" width="3.52" height="65.22"/><rect x="131.04" y="193.2" width="3.67" height="67.86" transform="translate(-85.29 37.33) rotate(-20.37)"/><rect x="102.36" y="193.19" width="3.67" height="67.92" transform="translate(108.27 453.26) rotate(-159.63)"/><path class="cls-143" d="M116.22,190.6" transform="translate(-14.55 -23.11)"/><polygon points="99.76 171.58 102.13 164.68 105.65 164.68 108.52 172.43 99.16 173.19 99.76 171.58"/><path d="M320.33,257.71l-68.65,0s3.85,9.55,17.36,12.72h34.55S315.83,268.07,320.33,257.71Z" transform="translate(-14.55 -23.11)"/><rect x="284.3" y="193.15" width="3.52" height="65.22" transform="translate(557.57 428.41) rotate(-180)"/><rect x="269.8" y="193.2" width="3.67" height="67.86" transform="translate(432.69 511.48) rotate(-159.63)"/><rect x="298.47" y="193.19" width="3.67" height="67.92" transform="translate(-74.84 95.6) rotate(-20.37)"/><path class="cls-143" d="M288.28,190.6" transform="translate(-14.55 -23.11)"/><polygon points="275.63 171.58 273.27 164.68 269.74 164.68 266.87 172.43 276.23 173.19 275.63 171.58"/><path d="M229.28,313.07h-2.41c-3.72,0-7.43,0-11.14,0-.71,0-.94-.2-1-.93-.71-5.5-1.48-11-2.24-16.48l-2-14.71c-.37-2.7-.76-5.39-1.32-8.06q1.19,20,2.36,40H188.77q2-34.37,4-68.51h-.13q-4.68,34.18-9.37,68.4h-8.85c.06-1,.1-1.88.16-2.78q.69-9.24,1.36-18.47c.39-5.36.75-10.71,1.14-16.07q.67-9.33,1.38-18.65.65-8.83,1.3-17.67c.15-2.1.3-4.2.49-6.3a2.52,2.52,0,0,0-.58-2c-5.26-6.55-10.3-13.27-14.92-20.28-2.61-4-5-8.08-7.36-12.17a16,16,0,0,1-1.67-11.61c1.28-6.53,3.2-12.84,6.71-18.54,2.28-3.7,4.41-7.54,7.63-10.58a11.1,11.1,0,0,1,1.29-1.09,3.86,3.86,0,0,1,3.67-.86c2.65.8,5.42,1.18,8.12,1.85a80.26,80.26,0,0,1,15.63,5.25,21.51,21.51,0,0,1,7.27,5,6.85,6.85,0,0,1,1.06,8.09,16,16,0,0,1-4.51,5.54c-2.48,1.93-5.1,1.83-7.81.72-2-.81-3.93-1.8-5.92-2.65a15.68,15.68,0,0,0-10-1.26,6.38,6.38,0,0,0-2.66,1.48,3,3,0,0,0,.88,4.88,10.92,10.92,0,0,0,2.47.7,13,13,0,0,1,11,10.59c1.42,6.53,2.91,13.06,4.37,19.59.32,1.41.64,2.83,1,4.23.08.29.41.52.62.78a2.77,2.77,0,0,0,.22-1c-.71-4-1.54-7.91-2.17-11.88a21.43,21.43,0,0,1,.2-9.19,3.92,3.92,0,0,1,3-3,3,3,0,0,1,3.19.57,50.55,50.55,0,0,0,4.8,3.52,13.53,13.53,0,0,0,2.81,1.49,3.68,3.68,0,0,0,4.38-1.28c.46-.56.89-1.14,1.36-1.69-1.11,2.53-.72,4.38,1.53,6.14a88.78,88.78,0,0,0,7.2,5.2c2,1.24,3.72.72,5.14-1.13l14.95-19.5a1.58,1.58,0,0,1,.77-.62,26.21,26.21,0,0,1-.91,2.76c-1.56,3.38-3.12,6.78-4.8,10.1-3.39,6.69-6.93,13.3-10.28,20-1.61,3.23-2.94,6.6-4.33,9.93a12.7,12.7,0,0,0-.61,7.13c.66,4.13,1,8.3,1.4,12.46.45,4.76.81,9.53,1.19,14.29q.5,6.16,1,12.32.6,7.36,1.18,14.73c.27,3.41.51,6.81.75,10.22.24,3.25.46,6.51.69,9.77C229.3,312.3,229.28,312.64,229.28,313.07Z" transform="translate(-14.55 -23.11)"/><path d="M235.6,168.3a12,12,0,0,1-1,2c-4,5.27-8,10.51-12.06,15.76L212.64,199c-1.27,1.65-2.7,2.17-4.41,1a95.8,95.8,0,0,1-8.84-6.69c-1.55-1.33-1.65-3.08-.22-4.9,4.06-5.19,8-10.45,12-15.67,3.19-4.17,6.44-8.29,9.58-12.49,1.47-2,3-2.29,5.09-1.07a59.26,59.26,0,0,1,5.66,4.13,34.63,34.63,0,0,1,2.77,2.37A4.34,4.34,0,0,1,235.6,168.3Z" transform="translate(-14.55 -23.11)"/><path d="M238,171.53a7.71,7.71,0,0,1,2,.85c2.29,1.64,4.51,3.38,6.72,5.12a4.63,4.63,0,0,1,1,1.31,2.73,2.73,0,0,1-.31,3.3c-2.59,3.32-5.15,6.67-7.72,10l-11.47,15c-.33.42-.65.85-1,1.25a2.47,2.47,0,0,1-2.91.7,11,11,0,0,1-2.31-1.3c-1.89-1.38-3.74-2.81-5.59-4.25s-2.15-3.33-.67-5.27l14.54-18.9c1.68-2.19,3.34-4.39,5-6.59A3,3,0,0,1,238,171.53Z" transform="translate(-14.55 -23.11)"/><path d="M175.7,154.87c1.23-1.57,2.39-3,3.52-4.49,3.25-4.24,6.58-8.42,9.71-12.75a3.94,3.94,0,0,1,5.76-.94c2.63,1.93,5.2,3.94,7.75,6a4.1,4.1,0,0,1,1.62,2.78,3.13,3.13,0,0,1-.63,2.42c-3,3.82-5.92,7.65-8.84,11.51a.94.94,0,0,1-1.23.38c-5.52-1.59-11.05-3.13-16.58-4.69C176.5,155,176.2,155,175.7,154.87Z" transform="translate(-14.55 -23.11)"/><path d="M209.12,172.85c-.29-3.93-2.7-6.31-5.63-8.22-2.27-1.49-4.72-2.7-7.16-4.07.5-.68,1.06-1.5,1.66-2.28q4.38-5.73,8.77-11.45c1.68-2.2,4-2.5,6.27-.79,1.86,1.42,3.7,2.88,5.55,4.32.49.38,1,.74,1.5,1.11a4.2,4.2,0,0,1,.82,6.11c-3.42,4.25-6.7,8.61-10,12.93C210.27,171.28,209.7,172.07,209.12,172.85Z" transform="translate(-14.55 -23.11)"/><path d="M200.9,183.52c-1.36,1.77-2.57,3.52-4,5.12-1.11,1.26-3.4,1.31-5,.14-2.64-1.92-5.2-3.93-7.74-6a4,4,0,0,1-1.53-3.88,17,17,0,0,1,5.6,1.44c1.48.61,2.92,1.29,4.38,1.95C196.22,183.94,196.76,184,200.9,183.52Z" transform="translate(-14.55 -23.11)"/></svg>